/* XPM */
static char *result[] = {
/* columns rows colors chars-per-pixel */
"64 64 10 1 ",
"  c #300F0A",
". c #550F0A",
"X c #A02018",
"o c #CF4521",
"O c #DF7E27",
"+ c #AD5B40",
"@ c #F0D71E",
"# c #E3936B",
"$ c #F5C187",
"% c None",
/* pixels */
"%%%%%%%%%%%%%%%%%%%%%%%%%%%%%%%%%%%%%%%%%%%%%%%%%%%%%%%%%%%%%%%%",
"%%%%%%%%%%%%%%%%%%%%%%%%%%%%%%%%%%%%%%%%%%%%%%%%%%%%%%%%%%%%%%%%",
"%%%%%%%%%%%%%%%%%%%%%%%%%%%%%%%%%%%%%%%%%%%%%%%%%%%%%%%%%%%%%%%%",
"%%%%%%%%%%%%%%%%%%%%%%%%%%%%%%%%%%%%%%%%%%%%%%%%%%%%%%%%%%%%%%%%",
"%%%%%%%%%%%%%%%%%%%%%%%%%%%%%%%%%%%%%%%%%%%%%%%%%%%%%%%%%%%%%%%%",
"%%%%%%%%%%%%%%%%%%%%%%%%%%%%%%%%%%%%%%%%%%%%%%%%%%%%%%%%%%%%%%%%",
"%%%%%%%%%%%%%%%%%%%%%%%%%%%%%%%%%%%%%%%%%%%%%%%%%%%%%%%%%%%%%%%%",
"%%%%%%%%%%%%%%%%%%%%%%%%%%%%%%%%%%%%%%%%%%%%%%%%%%%%%%%%%%%%%%%%",
"%%%%%%%%%%%%%%%%%%%%%%%%%%%%%%%%%%%%%%%%%%%%%%%%%%%%%%%%%%%%%%%%",
"%%%%%%%%%%%%%%%%%%%%%%%%%%%%%%%%%%%%%%%%%%%%%%%%%%%%%%%%%%%%%%%%",
"%%%%%%%%%%%%%%%%%%%%%%%%%%%%%%%%%%%%%%%%%%%%%%%%%%%%%%%%%%%%%%%%",
"%%%%%%%%%%%%%%%%%%%%%%%%%%%%%%%%%%%%%%%%%%%%%%%%%%%%%%%%%%%%%%%%",
"%%%%%%%%%%%%%%%%%%%%%%%%%%%$$$$$$$$$$$$%$%%%%%%%%$$$$$$$%%$%$%%%",
"%%%%%%%%%%%%%%%%%%%%%%$$$$$%%%%%%%%%%%%%%%%%%%%%%%%%%%%%%%%%%%%%",
"%%%%%%%%%%%%%%%%%%$$$$%%%%%%%%%%%%%%%%%%%%%%%%%%%%%%%%%%%%%%%%%%",
"%%%%%%%%%%%%%%$$$$%%%%%%%%%%%%%%%%%%%%%%%%%%%%%%%%%%%%%%%%%%%%%%",
"%%%%%%%%%%$$$$%%%%%%%%%%%%%%%%%%%%%%%%%%%%%%%%%%%%%%%%%%%%%%%%%%",
"%%%%%%$$$$%%%%%%%%%%%%%%%%%%%%%%%%%%%%%%%%%%%%%%%%%%%%%%%%%%%%%%",
"%%%%%%%%%%%%%%%%%%%%%%%%%%%%%%%%%%%%%%%%%%%%%%%%%%%%%%%%%%%%%%%%",
"%$%%%%%%%%%%%%%%%%%%%%%%%%%%%%%%%%%%%%%%%%%%%%%%%%%%%%%%%%%%%%%%",
"%$ %%%%%%%%%%%%%%%%%%%%%%%%%%%%%%%%%%%%%%%%%%%%%%%%%%%%%%%%%%%%%",
"%$ %%%%%%%%%%%%%%%%%%%%%%%%%%%%%%      %%%%%%%%%%%%%%%%%%%%%%%%%",
"%$  %%%%%%%%%%%%%%%%%%%%%%%%%%%%        %%%%%%%%%%%%%%%%%%%%%%%%",
"%$   %%%%%%%%%%%%%%%%%%%%%%%%%%%         %%%%%%%%%%%%%%%%%%%%%%%",
"%$    %%%%%%%%%%%%%%%%%%%%%%%%%%      %%%%%%%%%%%%%%%%%%%%%%%%%%",
"%$      %%%%%%%%%%%%%%%%%%%%%%%%     #%%%%%%%%%%%%%%%%%%%%%%%%%%",
"%%$       %%%%%%%%%%%%%%%%%%%%%%     #%%%%%%%%%%%%%%%%%%%%%%%%%%",
"%%%$        %%%%%%%%%%%%%%%%%%%%%     %%XXoo%%%%%%%%%%%%%%%%%%%%",
"%%%%$          %%%%%%%%%%%%%%ooXX#### XXXoooo%%%%%%%%%%%%%%%%%%%",
"%%%%%$            %%%%%%%%%%ooXXO@@@OOXXoooooo%%%%%%%%%%%%%%%%%%",
"%%%%%%$$             %%%%%%%oXXOXXXXXXOXoooooo%%%%%%%%%%%%%%%%%%",
"%%%%%%%%$$              %%%%XXX@XooXXXOXXooooX%%%%%%%%%%%%%%%%%%",
"%%%%%%%%%%$$$               XX@.XoooXX.@XXooXXO%%%%%%%%%%%%%%%%%",
"%%%%%%%%%%%%%$$$            XO.XooooXX.@XXXXXO.%%%%%%%%%%%%%%%%%",
"%%%%%%%%%%%%%%%%$$$          .XooooooXX.@XXXO.##%%%%%%%%%%%%%%%%",
"%%%%%%%%%%%%%%%%%%%$$$$       XXXXooooXX.@@O.###..%%%%%%%%%%%%%%",
"%%%%%%%%%%%%%%%%%%%%%%%$$$$$$$XXXXXXXXXXX...++##....##%%%%%%%%%%",
"%%%%%%%%%%%%%%%%%%%%%%%%%%%%%%%XXXXXXXXXXX%%%%%%....#%%%%%%%%%%%",
"%%%%%%%%%%%%%%%%%%%%%%%%%%%%%%%%XXXXXXXXXX%%%%%%%%%%%%%%%%%%%%%%",
"%%%%%%%%%%%%%%%%%%%%%%%%%%%%%%%%XXXXXXXXX%%%%%%%%%%%%%%%%%%%%%%%",
"%%%%%%%%%%%%%%%%%%%%%%%%%%%%%%%%XXXXXXXOO%%%%%%%%%%%%%%%%%%%%%%%",
"%%%%%%%%%%%%%%%%%%%%%%%%%%%%%%%%OO@@@@O...%%%%%%%%%%%%%%%%%%%%%%",
"%%%%%%%%%%%%%%%%%%%%%%%%%%%%%%%%........XXX%%%%%%%%%%%%%%%%%%%%%",
"%%%%%%%%%%%%%%%%%%%%%%%%%%%%%%%oX..   .XXXoo%%%%%%%%%%%%%%%%%%%%",
"%%%%%%%%%%%%%%%%%%%%%%%%%%%%%%ooX.    .XXoooo%%%%%%%%%%%%%%%%%%%",
"%%%%%%%%%%%%%%%%%%%%%%%%%%%%%%ooX.     XXooooo%%%%%%%%%%%%%%%%%%",
"%%%%%%%%%%%%%%%%%%%%%%%%%%%%%ooXX      XXXoooXX%%%%%%%%%%%%%%%%%",
"%%%%%%%%%%%%%%%%%%%%%%%%%%%%%oXXX       XXXXXX@O%%%%%%%%%%%%%%%%",
"%%%%%%%%%%%%%%%%%%%%%%%%%%%%%XX@O        OO@@@%%%%%%%%%%%%%%%%%%",
"%%%%%%%%%%%%%%%%%%%%%%%%%%%%O@@              %%%%%%%%%%%%%%%%%%%",
"%%%%%%%%%%%%%%%%%%%%%%%%%%%%%%%%      %%      %%%%%%%%%%%%%%%%%%",
"%%%%%%%%%%%%%%%%%%%%%%%%%%%%%%%%%     %%%   ..%%%%%%%%%%%%%%%%%%",
"%%%%%%%%%%%%%%%%%%%%%%%%%%%%%%%%%    %%%%%..XX%%%%%%%%%%%%%%%%%%",
"%%%%%%%%%%%%%%%%%%%%%%%%%%%%%%%%    %%%%%. ...%%%%%%%%%%%%%%%%%%",
"%%%%%%%%%%%%%%%%%%%%%%%%%%%%%%%%    %%%%...  %%%%%%%%%%%%%%%%%%%",
"%%%%%%%%%%%%%%%%%%%%%%%%%%%%%%%%   %%%%%... %%%%%%%%%%%%%%%%%%%%",
"%%%%%%%%%%%%%%%%%%%%%%%%%%%%%%%%   %%%%%... %%%%%%%%%%%%%%%%%%%%",
"%%%%%%%%%%%%%%%%%%%%%%%%%%%%%%%    %%%%... %%%%%%%%%%%%%%%%%%%%%",
"%%%%%%%%%%%%%%%%%%%%%%%%%%%%%%%   %%%%%... %%%%%%%%%%%%%%%%%%%%%",
"%%%%%%%%%%%%%%%%%%%%%%%%%%%%%%%   %%%%... %%%%%%%%%%%%%%%%%%%%%%",
"%%%%%%%%%%%%%%%%%%%%%%%%%%%%%%    %%%%..X%%%%%%%%%%%%%%%%%%%%%%%",
"%%%%%%%%%%%%%%%%%%%%%%%%%%%%%%     %% ..XX%%%%%%%%%%%%%%%%%%%%%%",
"%%%%%%%%%%%%%%%%%%%%%%%%%%%%%%      %  ....%%%%%%%%%%%%%%%%%%%%%",
"%%%%%%%%%%%%%%%%%%%%%%%%%%%%%%%%%%%%%%%%%%%%%%%%%%%%%%%%%%%%%%%%"
};
