/* XPM */
static char *result[] = {
/* columns rows colors chars-per-pixel */
"64 64 11 1 ",
"  c #300F0A",
". c #550F0A",
"X c #A02018",
"o c #CF4521",
"O c #DF7E27",
"+ c #AD5B40",
"@ c #F0D71E",
"# c #E3936B",
"$ c #F5C187",
"% c #F5DDA6",
"& c None",
/* pixels */
"&&&&&&&&&&&&&&&&&&&&&&&&&&&&&&&&&&&&&&&&&&&&&&&&&&&&&&&&&&&&&&&&",
"&&&&&&&&&&&&&&&&&&&&&&&&&&&&&&&&&&&&&&&&&&&&&&&&&&&&&&&&&&&&&&&&",
"&&&&&&&&&&&&&&&&&&&&&&&&&&&&&&&&&&&&&&&&&&&&&&&&&&&&&&&&&&&&&&&&",
"&&&&&&&&&&&&&&&&&&&&&&&&&&&&&&&&&&&&&&&&&&&&&&&&&&&&&&&&&&&&&&&&",
"&&&&&&&&&&&&&&&&&&&&&&&&&&&&&&&&&&&&&&&&&&&&&&&&&&&&&&&&&&&&&&&&",
"&&&&&&&&&&&&&&&&&&&&&&&&&&&&&&&&&&&&&&&&&&&&&&&&&&&&&&&&&&&&&&&&",
"&&&&&&&&&&&&&&&&&&&&&&&&&&&&&&&&&&&&&&&&&&&&&&&&&&&&&&&&&&&&&&&&",
"&&&&&&&&&&&&&&&&&&&&&&&&&&&&&&&&&&&&&&&&&&&&&&&&&&&&&&&&&&&&&&&&",
"&&&&&&&&&&&&&&&&&&&&&&&&&&&&&&&&&&&&&&&&&&&&&&&&&&&&&&&&&&&&&&&&",
"&&&&&&&&&&&&&&&&&&&&&&&&&&&&&&&&&&&&&&&&&&&&&&&&&&&&&&&&&&&&&&&&",
"&&&&&&&&&&&&&&&&&&&&&&&&&&&&&&&&&&&&&&&&&&&&&&&&&&&&&&&&&&&&&&&&",
"&&&&&&&&&&&&&&&&&&&&&&&&&&&&&&&&&&&&&&&&&&&&&&&&&&&&&&&&&&&&&&&&",
"&&&&&&&&&&&&&&&&&&&&&&&&&&&&&&&&&&&&&&&&&&&&&&&&&&&&&&&&&&&&&&&&",
"&&&&&&&&&&&&&&&&&&&&&&&&&&&&&&&&&&&&&&&&&&&&&&&&&&&&&&&&&&&&&&&&",
"&&&&&&&&&&&&&&&&&&&&&&&&&&&&&&&&&&&&&&&&&&&&&&&&&&&&&&&&&&&&&&&&",
"&&&&&&&&&&&&&&&&&&&&&&&&&&&&&&&&&&&&&&&&&&&&&&&&&&&&&&&&&&&&&&&&",
"&&&&&&&&&&&&&&&&&&&&&&&&&&&&&&&&&&&&&&&&&&&&&&&&&&&&&&&&&&&&&&&&",
"&&&&&&&&&&&&&&&&&&&&&&&&&&&&&&&&&&&&&&&&&&&&&&&&&&&&&&&&&&&&&&&&",
"&&&&&&&&&&&&&&&&&&&&&&&&&&&&&&&&&&&&&&&&&&&&&&&&&&&&&&&&&&&&&&&&",
"&&&&&&&&&&&&&&&&&&&&&&&&&&&&&&&&&&&&&&&&&&&&&&&&&&&&&&&&&&&&&&&&",
"&&&&&&&&&&&&&&&&&&&&&&&&&&&&&&&&&&&&&&&&&&&&&&&&&&&&&&&&&&&&&&&&",
"&&&&&&&&&&&&&&&&&&&&&&&&&&&&&&&&&&&&&&&&&&&&      &&&&&&&&&&&&&&",
"&&&&&&&&&&&&&&&&&&&&&&&&&&&&&&&&&&&&&&&&&&&        &&&&&&&&&&&&&",
"&&&&&&&&&&&&&&&&&&&&&&&&&&&&&&&&&&&&&&&&&&&        &&&&&&&&&&&&&",
"&&&&&&&&&&&&&&&&&&&&&&&&&&&&&&&&&&&&&&&&&&  &####  &&&&&&&&&&&&&",
"&&&&&&&&&&&&&&&&&&&&&&&&&&&&&&&&&&&&&&&&&&&&&+#++ #&&&&&&&&&&&&&",
"&&&&&&&&&&&&&&&&&&&&&&&&&&&&&&&&&&&&&&&&&&&&&%%%% #&&&&&&&&&&&&&",
"&&&&&&&&&&&&&&&&&&&&&&&&&&&&&&&&&&&&&&&&&&&&&   %#&&oooo&&&&&&&&",
"&&&&&&&&&&&&&&&&&&&&&&&&&&&&&&&&&&&&&&&&&&&&&   +#&oooooo&&&&&&&",
"&&&&&&&&&&&&&&&&&&&&&&&&&&&&&&&&&&&&&&&&&&&&&O+++OXoooooo&&&&&&&",
"&&&&&&&&&&&&&&&&&&&&&&&&&&&&&&&&&&&&&&&&&&oXXO@@OXXooooooX&&&&&&",
"&&&&&&&&&&&&&&&&&&&&&&&&&&&&&&&&&&&&&&&&&ooXO.XXOXXXooooXX&&&&&&",
"&&&&&&&&&&&&&&&&&&&&&&&&&&&&&&&&&&&&&&&&&oXO.XXX.OXXXXXXXX&&&&&&",
"&&&&&&&&&&&&&&&&&&&&&&&&&&&&&&&&&&&&&&&&&XX@.ooX+.@@XXXXX&&&&&&&",
"&&&&&&&&&&&&&&&&&&&&&&&&&&&&&&&&&&&&&&&&&O@.ooXX%+..@@@OO&&&&&&&",
"&&&&&&&&&&&&&&&&&&&&&&&&&&&&&&&&&&&&&&&&&&.XXXX%%%++....&&&&&&&&",
"&&&&&&&&&&&&&&&&&&&&&&&&&&&&&&&&&&&&&&&&&&&XXX%%%%#+XX.&&&&&&&&&",
"&&&&&&&&&&&&&&&&&&&&&&&&&&&&&&&&&&&&&&&&&& XX.%%%##XXX&&&&&&&&&&",
"&&&&&&&&&&&&&&&&&&&&&&&&&&&&&&&&&&&&&&.&&  ...%%##XXXXX&&&&&&&&&",
"&&&&&&&&&&&&&&&&&&&&&&&&&&&&&&&&&&&&&&..  ....###XXXXXXO&&&&&&&&",
"&&&&&&&&&&&&&&&&&&&&&&&&&&&&&&&&&&&&&&.   ... OXXXXXXX@.&&&&&&&&",
"&&&&&&&&&&&&&&&&&&&&&&&&&&&&&&&&&&&&  #.#..  ..OOOOXX@...&&&&&&&",
"&&&&&&&&&&&&&&&&&&&&&&&&&&&&&&&&&    o#.## XXX. OXXOO...X&&&&&&&",
"&&&&&&&&&&&&&&&&&&&&&&&&&&&&&       o ##.#XXXo. @XXO ..Xoo&&&&&&",
"&&$&&&&&&&&&&&&&&&&&&             o   ..&XXXooX @XXO .Xoooo&&&&&",
"&&$  &&&&&&                          $..XXXoooX @XX@ .XooooX&&&&",
"&&$                                $$&.&XXooooX @XX@ XXooXXXO&&&",
"&&$                             $$$&&&&&XXXXXXO OXX@ XXXXX@O&&&&",
"&&$                          $$$&&&&&&&&O@@@OO  OXX@ XXO@@ &&&&&",
"&&&$                      $$$&&&&&&&&&&&&       OXXO&OO  .. &&&&",
"&&&&$                 $$$$&&&&&&&&&&&&&&..     &OXXO&&  XXX. &&&",
"&&&&&$$$$$        $$$$&&&&&&&&&&&&&&&&&XXX.   &&OXXO&&  XX.. &&&",
"&&&&&&&&&&$$$$$$$$&&&&&&&&&&&&&&&&&&&&&XX.. &&&@@OOO&&& ...  &&&",
"&&&&&&&&&&&&&&&&&&&&&&&&&&&&&&&&&&&&&&&...  &&&&OOO&&&&&     &&&",
"&&&&&&&&&&&&&&&&&&&&&&&&&&&&&&&&&&&&&&&   . &&&&&&&&&&&&&... &&&",
"&&&&&&&&&&&&&&&&&&&&&&&&&&&&&&&&&&&&&&&&... &&&&&&&&&&&&&... &&&",
"&&&&&&&&&&&&&&&&&&&&&&&&&&&&&&&&&&&&&&&&.. &&&&&&&&&&&&&&&... &&",
"&&&&&&&&&&&&&&&&&&&&&&&&&&&&&&&&&&&&&&&&.. &&&&&&&&&&&&&&&&.. &&",
"&&&&&&&&&&&&&&&&&&&&&&&&&&&&&&&&&&&&&&&&.. &&&&&&&&&&&&&&&&.. &&",
"&&&&&&&&&&&&&&&&&&&&&&&&&&&&&&&&&&&&&&&... &&&&&&&&&&&&&&&&.. &&",
"&&&&&&&&&&&&&&&&&&&&&&&&&&&&&&&&&&&&&&... &&&&&&&&&&&&&&&&&... &",
"&&&&&&&&&&&&&&&&&&&&&&&&&&&&&&&&&&&&&XXX. &&&&&&&&&&&&&&&&XXX. &",
"&&&&&&&&&&&&&&&&&&&&&&&&&&&&&&&&&&&&...   &&&&&&&&&&&&&&&...   &",
"&&&&&&&&&&&&&&&&&&&&&&&&&&&&&&&&&&&&&&&&&&&&&&&&&&&&&&&&&&&&&&&&"
};
