/* XPM */
static char *result[] = {
/* columns rows colors chars-per-pixel */
"64 64 11 1 ",
"  c #300F0A",
". c #550F0A",
"X c #A02018",
"o c #CF4521",
"O c #DF7E27",
"+ c #AD5B40",
"@ c #F0D71E",
"# c #E3936B",
"$ c #F5C187",
"% c #F5DDA6",
"& c None",
/* pixels */
"&&&&&&&&&&&&&&&&&&&&&&&&&&&&&&&&&&&&&&&&&&&&&&&&&&&&&&&&&&&&&&&&",
"&&&&&&&&&&&&&&&&&&&&&&&&&&&&&&&&&&&&&&&&&&&&&&&&&&&&&&&&&&&&&&&&",
"&&&&&&&&&&&&&&&&&&&&&&&&&&&&&&&&&&&&&&&&&&&&&&&&&&&&&&&&&&&&&&&&",
"&&&&&&&&&&&&&&&&&&&&&&&&&&&&&&&&&&&&&&&&&&&&&&&&&&&&&&&&&&&&&&&&",
"&&&&&&&&&&&&&&&&&&&&&&&&&&&&&&&&&&&&&&&&&&&&&&&&&&&&&&&&&&&&&&&&",
"&&&&&&&&&&&&&&&&&&&&&&&&&&&&&&&&&&&&&&&&&&&&&&&&&&&&&&&&&&&&&&&&",
"&&&&&&&&&&&&&&&&&&&&&&&&&&&&&&&&&&&&&&&&&&&&&&&&&&&&&&&&&&&&&&&&",
"&&&&&&&&&&&&&&&&&&&&&&&&&&&&&&&&&&&&&&&&&&&&&&&&&&&&&&&&&&&&&&&&",
"&&&&&&&&&&&&&&&&&&&&&&&&&&&&&&&&&&&&&&&&&&&&&&&&&&&&&&&&&&&&&&&&",
"&&&&&&&&&&&&&&&&&&&&&&&&&&&&&&&&&&&&&&&&&&&&&&&&&&&&&&&&&&&&&&&&",
"&&&&&&&&&&&&&&&&&&&&&&&&&&&&&&&&&&&&&&&&&&&&&&&&&&&&&&&&&&&&&&&&",
"&&&&&&&&&&&&&&&&&&&&&&&&&&&&&&&&&&&&&&&&&&&&&&&&&&&&&&&&&&&&&&&&",
"&&&&&&&&&&&&&&&&&&&&&&&&&&&&&&&&&&&&&&&&&&&&&&&&&&&&&&&&&&&&&&&&",
"&&&&&&&&&&&&&&&&&&&&&&&&&&&&&&&&&&&&&&&&&&&&&&&&&&&&&&&&&&&&&&&&",
"&&&&&&&&&&&&&&&&&&&&&&&&&&&&&&&&&&&&&&&&&&&&&&&&&&&&&&&&&&&&&&&&",
"&&&&&&&&&&&&&&&&&&&&&&&&&&&&&&&&&&&&&&&&&&&&&&&&&&&&&&&&&&&&&&&&",
"&&&&&&&&&&&&&&&&&&&&&&&&&&&&&&&&&&&&&&&&&&&&&&&&&&&&&&&&&&&&&&&&",
"&&&&&&&&&&&&&&&&&&&&&&&&&&&&&&&&&&&&&&&&&&&&&&&&&&&&&&&&&&&&&&&&",
"&&&&&&&&&&&&&&&&&&&&&&&&&&&&&&&&&&&&&&&&&&&&&&&&&&&&&&&&&&&&&&&&",
"&&&&&&&&&&&&&&&&&&&&&&&&&&&&&&&&&&&&&&&&&&&&      &&&&&&&&&&&&&&",
"&&&&&&&&&&&&&&&&&&&&&&&&&&&&&&&&&&&&&&&&&&&        &&&&&&&&&&&&&",
"&&&&&&&&&&&&&&&&&&&&&&&&&&&&&&&&&&&&&&&&&&&        &&&&&&&&&&&&&",
"&&&&&&&&&&&&&&&&&&&&&&&&&&&&&&&&&&&&&&&&&&&  ####& &&&&&&&&&&&&&",
"&&&&&&&&&&&&&&&&&&&&&&&&&&&&&&&&&&&&&&&&&&&# ++#+&&&&&&&&&&&&&&&",
"&&&&&&&&&&&&&&&&&&&&&&&&&&&&&&&&&&&&&&&&&&&# %%%%&&&&&&&&&&&&&&&",
"&&&&&&&&&&&&&&&&&&&&&&&&&&&&&&&&&&&&&&&&&&&&#%   &&&&&&&&&&&&&&&",
"&&&&&&&&&&&&&&&&&&&&&&&&&&&&&&&&&&&&&&Xooo&&#+   &&&&&&&&&&&&&&&",
"&&&&&&&&&&&&&&&&&&&&&&&&&&&&&&&&&&&&&XoooXXO#++++OXXooooo&&&&&&&",
"&&&&&&&&&&&&&&&&&&&&&&&&&&&&&&&&&&&&XXooXO@@OOO@@OOXoooooo&&&&&&",
"&&&&&&&&&&&&&&&&&&&&&&&&&&&&&&&&&&&&OXXXOXX@@@@XX@XooooXXXX&&&&&",
"&&&&&&&&&&&&&&&&&&&&&&&&&&&&&&&&&&&&.@@OXooXXXXX@XoooXX@OOX&&&&&",
"&&&&&&&&&&&&&&&&&&&&&&&&&&&&&&&&&&&&+.  XooooooX@XXXX@@   O&&&&&",
"&&&&&&&&&&&&&&&&&&&&&&&&&&&&&&&&&&&&#+++XooooooXOOO@@ .++.&&&&&&",
"&&&&&&&&&&&&&&&&&&&&&&&&&&&&&&&&&&&&#%%#XXooooXXX.   .+##&&&&&&&",
"&&&&&&&&&&&&&&&&&&&&&&&&&&&&&&&&&&&&#%%&.XXXXXX....%%%##&&&&&&&&",
"&&&&&&&&&&&&&&&&&&&&&&&&&&&&&&&&&&&&#%%&..........%%%%#&&&&&&&&&",
"&&&&&&&&&&&&&&&&&&&&&&&&&&&&&&&&&&&& ..&&XXXXXXXX##%%#&&&&&&&&&&",
"&&&&&&&&&&&&&&&&&&&&&&&&&&&&&&&&&&&& ..&&XooooX....##&&&&&&&&&&&",
"&&&&&&&&&&&&&&&&&&&&&&&&&&&&&&&&&&&& ...&&Xooo.... X&&&&&&&&&&&&",
"&&&&&&&&&&&&&&&&&&&&&&&&&&&&&&&&&&&&& ..OOXX....  XX&&&&&&&&&&&&",
"&&&&&&&&&&&&&&&&&&&&&&&&&&&&&&&&&..&& ..XX%%..  XX@@O&&&&&&&&&&&",
"&&&&&&&&&&&&&&&&&&&&&&&&&&&&&&&&&...&&###.%%  OOOO....&&&&&&&&&&",
"&&&&&&&&&&&&&&&&&&&&&&&&&&&&&&&&&& ..&%%%.%#OOXXO .XXX&&&&&&&&&&",
"&&&&&&&&&&&&&&&&&&&&&&&&&&&&&&&&   ...+##X#. OXX@ .XXXo&&&&&&&&&",
"&&&&&&&&&&&&&&&&&&&&&&&&&&&&&&     o...++XX. OXX@ XXXooo&&&&&&&&",
"&&&&&&&&&&&&&&&&&&&&&&&&&&&&     o   ..XXXX. @XX@ Xoooooo&&&&&&&",
"&&&&&&&&&&&&&&&&&&&&&&&&&&     o     ...XXXX @XX@ Xoooooo&&&&&&&",
"&&&&&&&&&&&&&&&&&&&&&&&&             $...XXX @XXO OXXXXXX&&&&&&&",
"&&&&&&&&&&&&&&&&&&&&&&             $$& ..OXX @XXO  OO@@@O&&&&&&&",
"&&&&&&&&&&&&&&&&&&&&             $$&& ..  @@&OXXO       &&&&&&&&",
"&&&&&&&&&&&&&&&&&&             $$&&& .XXX  &&OXXO&     ..&&&&&&&",
"&&&&&&&&&&&&&&&&             $$&&&&& ..XX  &&OXXO&&   .XXX&&&&&&",
"&&&&&&&&&&&&&&             $$&&&&&&&  ... &&&OXXO&&&& ..XX&&&&&&",
"&&&&&&&&&&&&             $$&&&&&&&&&     &&&&OXX@&&&&  ...&&&&&&",
"&&&&&&&&&&             $$&&&&&&&&&&& ...&&&&&&O@&&&&& .   &&&&&&",
"&&&&&&&&             $$&&&&&&&&&&&&& ...&&&&&&&&&&&&& ...&&&&&&&",
"&&&&&&             $$&&&&&&&&&&&&&& ...&&&&&&&&&&&&&&& ..&&&&&&&",
"&&&&             $$&&&&&&&&&&&&&&&& ..&&&&&&&&&&&&&&&& ..&&&&&&&",
"&&             $$&&&&&&&&&&&&&&&&&& ..&&&&&&&&&&&&&&&& ..&&&&&&&",
"&$           $$&&&&&&&&&&&&&&&&&&&& ..&&&&&&&&&&&&&&&& ...&&&&&&",
"&&$$$     $$$&&&&&&&&&&&&&&&&&&&&& ...&&&&&&&&&&&&&&&&& ...&&&&&",
"&&&&&$$$$$&&&&&&&&&&&&&&&&&&&&&&&& .XXX&&&&&&&&&&&&&&&& .XXX&&&&",
"&&&&&&&&&&&&&&&&&&&&&&&&&&&&&&&&&&   ...&&&&&&&&&&&&&&&   ...&&&",
"&&&&&&&&&&&&&&&&&&&&&&&&&&&&&&&&&&&&&&&&&&&&&&&&&&&&&&&&&&&&&&&&"
};
