/* XPM */
static char *result[] = {
/* columns rows colors chars-per-pixel */
"64 64 11 1 ",
"  c #300F0A",
". c #550F0A",
"X c #A02018",
"o c #CF4521",
"O c #DF7E27",
"+ c #AD5B40",
"@ c #F0D71E",
"# c #E3936B",
"$ c #F5C187",
"% c #F5DDA6",
"& c None",
/* pixels */
"&&&&&&&&&&&&&&&&&&&&&&&&&&&&&&&&&&&&&&&&&&&&&&&&&&&&&&&&&&&&&&&&",
"&&&&&&&&&&&&&&&&&&&&&&&&&&&&&&&&&&&&&&&&&&&&&&&&&&&&&&&&&&&&&&&&",
"&&&&&&&&&&&&&&&&&&&&&&&&&&&&&&&&&&&&&&&&&&&&&&&&&&&&&&&&&&&&&&&&",
"&&&&&&&&&&&&&&&&&&&&&&&&&&&&&&&&&&&&&&&&&&&&&&&&&&&&&&&&&&&&&&&&",
"&&&&&&&&&&&&&&&&&&&&&&&&&&&&&&&&&&&&&&&&&&&&&&&&&&&&&&&&&&&&&&&&",
"&&&&&&&&&&&&&&&&&&&&&&&&&&&&&&&&&&&&&&&&&&&&&&&&&&&&&&&&&&&&&&&&",
"&&&&&&&&&&&&&&&&&&&&&&&&&&&&&&&&&&&&&&&&&&&&&&&&&&&&&&&&&&&&&&&&",
"&&&&&&&&&&&&&&&&&&&&&&&&&&&&&&&&&&&&&&&&&&&&&&&&&&&&&&&&&&&&&&&&",
"&&&&&&&&&&&&&&&&&&&&&&&&&&&&&&&&&&&&&&&&&&&&&&&&&&&&&&&&&&&&&&&&",
"&&&&&&&&&&&&&&&&&&&&&&&&&&&&&&&&&&&&&&&&&&&&&&&&&&&&&&&&&&&&&&&&",
"&&&&&&&&&&&&&&&&&&&&&&&&&&&&&&&&&&&&&&&&&&&&&&&&&&&&&&&&&&&&&&&&",
"&&&&&&&&&&&&&&&&&&&&&&&&&&&&&&&&&&&&&&&&&&&&&&&&&&&&&&&&&&&&&&&&",
"&&&&&&&&&&&&&&&&&&&&&&&&&&&&&&&&&&&&&&&&&&&&&&&&&&&&&&&&&&&&&&&&",
"&&&&&&&&&&&&&&&&&&&&&&&&&&&&&&&&&&&&&&&&&&&&&&&&&&&&&&&&&&&&&&&&",
"&&&&&&&&&&&&&&&&&&&&&&&&&&&&&&&&&&&&&&&&&&&&&&&&&&&&&&&&&&&&&&&&",
"&&&&&&&&&&&&&&&&&&&&&&&&&&&&&&&&&&&&&&&&&&&&&&&&&&&&&&&&&&&&&&&&",
"&&&&&&&&&&&&&&&&&&&&&&&&&&&&&&&&&&&&&&&&&&&&&&&&&&&&&&&&&&&&&&&&",
"&&&&&&&&&&&&&&&&&&&&&&&&&&&&&&&&&&&&&&&&&&&&&&&&&&&&&&&&&&&&&&&&",
"&&&&&&&&&&&&&&&&&&&&&&&&&&&&&&&&&&&&&&&&&&&&&&&&&&&&&&&&&&&&&&&&",
"&&&&&&&&&&&&&&&&&&&&&&&&&&&&&&&&&&&&&&&&&&&&&&&&&&&&&&&&&&&&&&&&",
"&&&&&&&&&&&&&&&&&&&&&&&&&&&&&&&&&&&&&&&&&&&&&&&&&&&&&&&&&&&&&&&&",
"&&&      &&&&&&&&&&&&&&&&&&&&&&&&&&&&&&&&&&&&&&&&&&&&&&&&&&&&&&&",
"&&        &&&&&&&&&&&&&&&&&&&&&&&&&&&&&&&&&&&&&&&&&&&&&&&&&&&&&&",
"&&         &&&&&&&&&&&&&&&&&&&&&&&&&&&&&&&&&&&&&&&&&&&&&&&&&&&&&",
"&&     #&&&&&&&&&&&&&&&&&&&&&&&&&&&&&&&&&&&&&&&&&&&&&&&&&&&&&&&&",
"&&  # #+&&&&&&&&&&&&&&&&&&&&&&&&&&&&&&&&&&&&&&&&&&&&&&&&&&&&&&&&",
"&&  # %%&&&&&&&&&&&&&&&&&&&&&&&&&&&&&&&&&&&&&&&&&&&&&&&&&&&&&&&&",
"&&&   %  &&&&&&&&&&&&&&&&&&&&&&&&&&&&&&&&&&&&&&&&&&&&&&&&&&&&&&&",
"&&&#++   Xoooo&&&&&&&&&&&&&&&&&&&&&&&&&&&&&&&&&&&&&&&&&&&&&&&&&&",
"&&&O@@O.XXooooo&&&&&&&&&&&&&&&&&&&&&&&&&&&&&&&&&&&&&&&&&&&&&&&&&",
"&&&XXXX.XoooooXX&&&&&&&&&&&&&&&&&&&&&&&&&&&&&&&&&&&&&&&&&&&&&&&&",
"&&XXXXX.XooooXXX&&&&&&&&&&&&&&&&&&&&&&&&&&&&&&&&&&&&&&&&&&&&&&&&",
"&&oooXX.XXooXXXO&&&&&&&&&&&&&&&&&&&&&&&&&&&&&&&&&&&&&&&&&&&&&&&&",
"&&ooooo.OXXXX@O.%&&&&&&&&&&&&&&&&&&&&&&&&&&&&&&&&&&&&&&&&&&&&&&&",
"&&&ooooX.O@@@..+%%&&&&&&&&&&&&&&&&&&&&&&&&&&&&&&&&&&&&&&&&&&&&&&",
"&&&oooooX....++#%%%&&&&&&&&&&&&&&&&&&&&&&&&&&&&&&&&&&&&&&&&&&&&&",
"&&&&XXXooXXX..##%%%..&&&&&&&&&&&&&&&&&&&&&&&&&&&&&&&&&&&&&&&&&&&",
"&&&&&XXXXXXXX..##%%...&&&&&&&&&&&&&&&&&&&&&&&&&&&&&&&&&&&&&&&&&&",
"&&&&&&XXXXXXXXX.##....&&&&&&&&&&&&&&&&&&&&&&&&&&&&&&&&&&&&&&&&&&",
"&&&&&&&XXXXXXXXX&&  ...&&&&&&&&&&&&&&&&&&&&&&&&&&&&&&&&&&&&&&&&&",
"&&&&&&&&XXXXXXXXO&&& ..&&&&&..&&&&&&&&&&&&&&&&&&&&&&&&&&&&&&&&&&",
"&&&&&&&&XXXXXXXO.X&&& .%&&&...&&&&&&&&&&&&&&&&&&&&&&&&&&&&&&&&&&",
"&&&&&&&&&O@@@@O..Xo&&##%%&...  &&&&&&&&&&&&&&&&&&&&&&&&&&&&&&&&&",
"&&&&&&&&... OXX..XXo&##%%...     &&&&&&&&&&&&&&&&&&&&&&&&&&&&&&&",
"&&&&&&&oX..  OX   XXo&##...o       &&&&&&&&&&&&&&&&&&&&&&&&&&&&&",
"&&&&&&ooXX.   @X   XXX&...   o       &&&&&&&&&&&&&&&&&&&&&&&&&&&",
"&&&&&ooXXX    @X    OO&.$      o       &&&&&&&&&&&&&&&&&&&&&&&&&",
"&&&&&ooXX     @X     &&&&$$              &&&&&&&&&&&&&&&&&&&&&&&",
"&&&&@XXX      &@X  ...&&&&&$$              &&&&&&&&&&&&&&&&&&&&&",
"&&&&&@OO   ...&@X  ..XX&&&&&&$$              &&&&&&&&&&&&&&&&&&&",
"&&&&&&&&  ..XXXOX&  .X.&&&&&&&&$$              &&&&&&&&&&&&&&&&&",
"&&&&&&&&. ...XXOX&  .. &&&&&&&&&&$$              &&&&&&&&&&&&&&&",
"&&&&&&&...  ..&OX&    .&&&&&&&&&&&&$$              &&&&&&&&&&&&&",
"&&&&&&.....   &OX&& ...&&&&&&&&&&&&&&$$                &&&&&&&&&",
"&&&&&......  &&@X&& ...&&&&&&&&&&&&&&&&$$                 &&&&&&",
"&&&&.....  &&&@XX&&& ...&&&&&&&&&&&&&&&&&$$                   &&",
"&&&....  &&&&@OO&&&& ...&&&&&&&&&&&&&&&&&&&$$                 $$",
"&&.... &&&&&&&&&&&&&& ..&&&&&&&&&&&&&&&&&&&&&$$            $$$&&",
"&.... &&&&&&&&&&&&&&& ...&&&&&&&&&&&&&&&&&&&&&&$$       $$$&&&&&",
"&... &&&&&&&&&&&&&&&&& ..&&&&&&&&&&&&&&&&&&&&&&&&$$$$$$$&&&&&&&&",
"&.XX&&&&&&&&&&&&&&&&&& ..XX&&&&&&&&&&&&&&&&&&&&&&&&&&&&&&&&&&&&&",
"&.XXX&&&&&&&&&&&&&&&&&  ..XX&&&&&&&&&&&&&&&&&&&&&&&&&&&&&&&&&&&&",
"&.....&&&&&&&&&&&&&&&&&  ....&&&&&&&&&&&&&&&&&&&&&&&&&&&&&&&&&&&",
"&&&&&&&&&&&&&&&&&&&&&&&&&&&&&&&&&&&&&&&&&&&&&&&&&&&&&&&&&&&&&&&&"
};
