/* XPM */
static char *result[] = {
/* columns rows colors chars-per-pixel */
"64 64 11 1 ",
"  c #300F0A",
". c #550F0A",
"X c #A02018",
"o c #CF4521",
"O c #DF7E27",
"+ c #AD5B40",
"@ c #F0D71E",
"# c #E3936B",
"$ c #F5C187",
"% c #F5DDA6",
"& c None",
/* pixels */
"&&&&&&&&&&&&&&&&&&&&&&&&&&&&&&&&&&&&&&&&&&&&&&&&&&&&&&&&&&&&&&&&",
"&&&&&&&&&&&&&&&&&&&&&&&&&&&&&&&&&&&&&&&&&&&&&&&&&&&&&&&&&&&&&&&&",
"&&&&&&&&&&&&&&&&&&&&&&&&&&&&&&&&&&&&&&&&&&&&&&&&&&&&&&&&&&&&&&&&",
"&&&&&&&&&&&&&&&&&&&&&&&&&&&&&&&&&&&&&&&&&&&&&&&&&&&&&&&&&&&&&&&&",
"&&&&&&&&&&&&&&&&&&&&&&&&&&&&&&&&&&&&&&&&&&&&&&&&&&&&&&&&&&&&&&&&",
"&&&&&&&&&&&&&&&&&&&&&&&&&&&&&&&&&&&&&&&&&&&&&&&&&&&&&&&&&&&&&&&&",
"&&&&&&&&&&&&&&&&&&&&&&&&&&&&&&&&&&&&&&&&&&&&&&&&&&&&&&&&&&&&&&&&",
"&&&&&&&&&&&&&&&&&&&&&&&&&&&&&&&&&&&&&&&&&&&&&&&&&&&&&&&&&&&&&&&&",
"&&&&&&&&&&&&&&&&&&&&&&&&&&&&&&&&&&&&&&&&&&&&&&&&&&&&&&&&&&&&&&&&",
"&&&&&&&&&&&&&&&&&&&&&&&&&&&&&&&&&&&&&&&&&&&&&&&&&&&&&&&&&&&&&&&&",
"&&&&&&&&&&&&&&&&&&&&&&&&&&&&&&&&&&&&&&&&&&&&&&&&&&&&&&&&&&&&&&&&",
"&&&&&&&&&&&&&&&&&&&&&&&&&&&&&&&&&&&&&&&&&&&&&&&&&&&&&&&&&&&&&&&&",
"&&&&&&&&&&&&&&&&&&&&&&&&&&&&&&&&&&&&&&&&&&&&&&&&&&&&&&&&&&&&&&&&",
"&&&&&&&&&&&&&&&&&&&&&&&&&&&&&&&&&&&&&&&&&&&&&&&&&&&&&&&&&&&&&&&&",
"&&&&&&&&&&&&&&&&&&&&&&&&&&&&&&&&&&&&&&&&&&&&&&&&&&&&&&&&&&&&&&&&",
"&&&&&&&&&&&&&&&&&&&&&&&&&&&&&&&&&&&&&&&&&&&&&&&&&&&&&&&&&&&&&&&&",
"&&&&&&&&&&&&&&&&&&&&&&&&&&&&&&&&&&&&&&&&&&&&&&&&&&&&&&&&&&&&&&&&",
"&&&&&&&&&&&&&&&&&&&&&&&&&&&&&&&&&&&&&&&&&&&&&&&&&&&&&&&&&&&&&&&&",
"&&&&&&&&&&&&&&&&&&&&&&&&&&&&&&&&&&&&&&&&&&&&&&&&&&&&&&&&&&&&&&&&",
"&&&&&&&&&&&&&&&&&&&&&&&&&&&&&&&&&&&&&&&&&&&&&&&&&&&&&&&&&&&&&&&&",
"&&&&&&&&&&&&&&&&&&&&&&&&&&&&&&&&&&&&&&&&&&&&&&&&&&&&&&&&&&&&&&&&",
"&&&&&&&&&&&&&&&&&&&&&&&&&&&&&&&&&&&&&&&&&&&&&&&&&      &&&&&&&&&",
"&&&&&&&&&&&&&&&&&&&&&&&&&&&&&&&&&&&&&&&&&&&&&&&&        &&&&&&&&",
"&&&&&&&&&&&&&&&&&&&&&&&&&$$$$$$&&&&&&&&&&&&&&&&         &&&&&&&&",
"&&&&&&&&&&&&&&$$$$$$$$$$$$$$$$$$$$$$$$&&&&&&&&&&&&####  &&&&&&&&",
"&&&&&&&&$$$$$$$$$$$$$$$&&&&&&&&&&&&&&&&&&&&&&&&&&&+#++ #&&&&&&&&",
"&&&$$$$$$$$$$&&&&&&&&&&&&&&&&&&&&&&&&&&&&&&&&&&ooX%%%% #&&&&&&&&",
"$$$$$$$$&&&&&&&&&&&&&&&&&&&&&&&&&&&&&&&&&&&&&ooooX   %#&&&&&&&&&",
"$$$$$&&&&&&&&&&&&&&&&&&&&&&&&&&&&&&&&&&&&&&&oooooX   +#OOXXoo&&&",
"$$&&&&&&&&&&&&&&&&&&&&&&&&&&&&&&&&&&&&&&&&&&XoooXXO+++OOXXoooo&&",
"&&&&&&&&&&&&&&&&&&&&&&&&&&&&&&&&&&&&&&&&&&&&XXXXXXOO@@@OXXooooo&",
"&&&&&&&&&&&&&&&&&&&&&&&&&&&&&&&&&&&&&&&&&&&&OXXX@OXXXX.OXXoooooo",
"&&&&&&&&&&&&&&&&&&&&&&&&&&&&&&&&&&&&&&&&&&&&.O@@..XooX.OXXXooooX",
"&&&&&&&&&&&&&&&&&&&&&&&&&&&&&&&&&&&&&&&&&&&&&...+XoooX.OXXXXXXXX",
"&&&&&&&&&&&&&&&&&&&&&&&&&&&&&&&&&&&&&&&&&&&&&%%%#XXoXX#.O@@XXXXO",
"&&&&&&&&&&&&&&&&&&&&&&&&&&&&&&&&&&&&&&&&&&&&&#%%XXXXX%%#...@@OO.",
"&&&&&&&&&&&&&&&&&&&&&&&&&&&&&&&&&&&&&&&&&&&&&#%%XXXX%%%%#+.....&",
"&&&&&&&&&&&&&&&&&&&&&&&&&&&&&&&&&&&&&&&&&&&&&###XXX%%%%###+&&&&&",
"&&&&&&&&&&&&&&&&&&&&&&&&&&&&&&&&&&&&&&&&&&&&.. XXX..%###XX&&&&&&",
"&&&&&&&&&&&&&&&&&&&&&&&&&&&&&&&&&&&&&&&&&&&&.. XX.... XX&&&&&&&&",
"&&&&&&&&&&&&&&&&&&&&&&&&&&&&&&&&&&&&&&&&&&&&.. X...  OOO&&&&&&&&",
"&&&&&&&&&&&&&&&&&&&&&&&&&&&&&&&&&&&&&&&&&&&.. &..  O ....X&&&&&&",
"&&&&&&&&&&&&&&&&&&&&&&&&&&&&&&&&&&&&&&&.&&&.. %. XXO ...XXo&&&&&",
"&&&&&&&&&&&&&&&&&&&&&&&&&&&&&&&&&&&&&&&...%%. %%XXXO  .XXoooo&&&",
"&&&&&&&&&&&&&&&&&&&&&&&&&&&&&&&&&&&&&&& ..%%%&   XX@  .XooooXX&&",
"&&&&&&&&&&&&&&&&&&&&&&&&&&&&&&&&&&&&&    o..#    XX@   XoooXXO&&",
"&&&&&&&&&&&&&&&&&&&&&&&&&&&&&&&&&&&    o  ...    XX@   XXoXXO&&&",
"&&&&&&&&&&&&&&&&&&&&&&&&&&&&&&&&&    o     ...  XX@     XXX@&&&&",
"&&&&&&&&&&&&&&&&&&&&&&&&&&&&&&&          $$& .  XXO ..  O@@&&&&&",
"$&&&&&&&&&&&&&&&&&&&&&&&&&&&&          $$&&&   XXO& XX. &&&&&&&&",
"$$&&&&&&&&&&&&&&&&&&&&&&&&&          $$&&&&&  XX@&&.XX. &&&&&&&&",
"&&&&&&&&&&&&&&&&&&&&&&&&&          $$&&&&&&&&O@@ && ...&&&&&&&&&",
"&&&&&&&&&&&&&&&&&&&&&&&          $$&&&&&&&&&&&   &&    &&&&&&&&&",
"&&&&&&&&&&&&&&&&&&&&           $$&&&&&&&&&&&&&   &&... &&&&&&&&&",
"&&&&&&&&&&&&&&&&&            $$&&&&&&&&&&&&&&&&   ... &&&&&&&&&&",
"&&&&&&&&&&&&&              $$&&&&&&&&&&&&&&&&&&   ... &&&&&&&&&&",
"&&&&&&&$                 $$&&&&&&&&&&&&&&&&&&&&& ... &&&&&&&&&&&",
"&&&&&&&&$             $$$&&&&&&&&&&&&&&&&&&&&&&& ... &&&&&&&&&&&",
"&&&&&&&&&$       $$$$$&&&&&&&&&&&&&&&&&&&&&&&&&& ... &&&&&&&&&&&",
"&&&&&&&&&&$$$$$$$&&&&&&&&&&&&&&&&&&&&&&&&&&&&&&&... &&&&&&&&&&&&",
"&&&&&&&&&&&&&&&&&&&&&&&&&&&&&&&&&&&&&&&&&&&&&&&&... &&&&&&&&&&&&",
"&&&&&&&&&&&&&&&&&&&&&&&&&&&&&&&&&&&&&&&&&&&&&&&XX. &&&&&&&&&&&&&",
"&&&&&&&&&&&&&&&&&&&&&&&&&&&&&&&&&&&&&&&&&&&&&&...  &&&&&&&&&&&&&",
"&&&&&&&&&&&&&&&&&&&&&&&&&&&&&&&&&&&&&&&&&&&&&&&&&&&&&&&&&&&&&&&&"
};
