/* XPM */
static char *result[] = {
/* columns rows colors chars-per-pixel */
"64 64 11 1 ",
"  c #300F0A",
". c #550F0A",
"X c #A02018",
"o c #CF4521",
"O c #DF7E27",
"+ c #AD5B40",
"@ c #F0D71E",
"# c #E3936B",
"$ c #F5C187",
"% c #F5DDA6",
"& c None",
/* pixels */
"&&&&&&&&&&&&&&&&&&&&&&&&&&&&&&&&&&&&&&&&&&&&&&&&&&&&&&&&&&&&&&&&",
"&&&&&&&&&&&&&&&&&&&&&&&&&&&&&&&&&&&&&&&&&&&&&&&&&&&&&&&&&&&&&&&&",
"&&&&&&&&&&&&&&&&&&&&&&&&&&&&&&&&&&&&&&&&&&&&&&&&&&&&&&&&&&&&&&&&",
"&&&&&&&&&&&&&&&&&&&&&&&&&&&&&&&&&&&&&&&&&&&&&&&&&&&&&&&&&&&&&&&&",
"&&&&&&&&&&&&&&&&&&&&&&&&&&&&&&&&&&&&&&&&&&&&&&&&&&&&&&&&&&&&&&&&",
"&&&&&&&&&&&&&&&&&&&&&&&&&&&&&&&&&&&&&&&&&&&&&&&&&&&&&&&&&&&&&&&&",
"&&&&&&&&&&&&&&&&&&&&&&&&&&&&&&&&&&&&&&&&&&&&&&&&&&&&&&&&&&&&&&&&",
"&&&&&&&&&&&&&&&&&&&&&&&&&&&&&&&&&&&&&&&&&&&&&&&&&&&&&&&&&&&&&&&&",
"&&&&&&&&&&&&&&&&&&&&&&&&&&&&&&&&&&&&&&&&&&&&&&&&&&&&&&&&&&&&&&&&",
"&&&&&&&&&&&&&&&&&&&&&&&&&&&&&&&&&&&&&&&&&&&&&&&&&&&&&&&&&&&&&&&&",
"&&&&&&&&&&&&&&&&&&&&&&&&&&&&&&&&&&&&&&&&&&&&&&&&&&&&&&&&&&&&&&&&",
"&&&&&&&&&&&&&&&&&&&&&&&&&&&&&&&&&&&&&&&&&&&&&&&&&&&&&&&&&&&&&&&&",
"&&&&&&&&&&&&&&&&&&&&&&&&&&&&&&&&&&&&&&&&&&&&&&&&&&&&&&&&&&&&&&&&",
"&&&&&&&&&&&&&&&&&&&&&&&&&&&&&&&&&&&&&&&&&&&&&&&&&&&&&&&&&&&&&&&&",
"&&&&&&&&&&&&&&&&&&&&&&&&&&&&&&&&&&&&&&&&&&&&&&&&&&&&&&&&&&&&&&&&",
"&&&&&&&&&&&&&&&&&&&&&&&&&&&&&&&&&&&&&&&&&&&&&&&&&&&&&&&&&&&&&&&&",
"&&&&&&&&&&&&&&&&&&&&&&&&&&&&&&&&&&&&&&&&&&&&&&&&&&&&&&&&&&&&&&&&",
"&&&&&&&&&&&&&&&&&&&&&&&&&&&&&&&&&&&&&&&&&&&&&&&&&&&&&&&&&&&&&&&&",
"&&&&&&&&&&&&&&&&&&&&&&&&&&&&&&&&&&&&&&&&&&&&&&&&&&&&&&&&&&&&&&&&",
"&&&&&&&&&&&&&&&&&&&&&&&&&&&&&&&&&&&&&&&&&&&&&&&&&&&&&&&&&&&&&&&&",
"&&&&&&&&&&&&&&&&&&&&&      &&&&&&&&&&&&&&&&&&&&&&&&&&&&&&&&&&&&&",
"&&&&&&&&&&&&&&&&&&&&        &&&&&&&&&&&&&&&&&&&&&&&&&&&&&&&&&&&&",
"&&&&&&&&&&&&&&&&&&&&        &&&&&&&&&&&&&&&&&&&&&&&&&&&&&&&&&&&&",
"&&&&&&&&&&&&&&&&&&&&  ####&&&&&&&&&&&&&&&&&&&&&&&&&&&&&&&&&&&&&&",
"&&&&&&&&&&&&&&&&&&&&# ++#+&&&&&&&&&&&&&&&&&&&&&&&&&&&&&&&&&&&&&&",
"&&&&&&&&&&&&&&&&&&&&# %%%%&&&&&&&&&&&&&&&&&&&&&&&&&&&&&&&&&&&&&&",
"&&&&&&&&&&&&&&&&&&&&&#%   XXooo&&&&&&&&&&&&&&&&&&&&&&&&&&&&&&&&&",
"&&&&&&&&&&&&&&&&ooooX#+   XXXooo&&&&&&&&&&&&&&&&&&&&&&&&&&&&&&&&",
"&&&&&&&&&&&&&&&oooooXX++++OXXXooo&&&&&&&&&&&&&&&&&&&&&&&&&&&&&&&",
"&&&&&&&&&&&&&&oooooooXXOO@@OXXXXX&&&&&&&&&&&&&&&&&&&&&&&&&&&&&&&",
"&&&&&&&&&&&&&&XooooooXXOXXXXOXXXX&&&&&&&&&&&&&&&&&&&&&&&&&&&&&&&",
"&&&&&&&&&&&&&&XXooooXXXOXXoX.O@@O&&&&&&&&&&&&&&&&&&&&&&&&&&&&&&&",
"&&&&&&&&&&&&&&XXXXXXXXOXXooX+....&&&&&&&&&&&&&&&&&&&&&&&&&&&&&&&",
"&&&&&&&&&&&&&&OOXXXXX@.XXoXX#+++&&&&&&&&&&&&&&&&&&&&&&&&&&&&&&&&",
"&&&&&&&&&&&&&&..O@@@@.+%XXXXX#%%&&&&&&&&&&&&&&&&&&&&&&&&&&&&&&&&",
"&&&&&&&&&&&&&&&&.....+%%%%XXX#%%&&&&&&&&&&&&&&&&&&&&&&&&&&&&&&&&",
"&&&&&&&&&&&&&&&&&&+++#%%%%%XX#..&&&&&&&&&&&&&&&&&&&&&&&&&&&&&&&&",
"&&&&&&&&&&&&&&&&&&&&+++#%%..XX...&&&&&&&&&&&&&&&&&&&&&&&&&&&&&&&",
"&&&&&&&&&&&&&&&&&&&&&XX++#....  .&&&&&&&&&&&&&&&&&&&&&&&&&&&&&&&",
"&&&&&&&&&&&&&&&&&&&&&O@@O+  .... &&&&&&&&&&&&&&&&&&&&&&&&&&&&&&&",
"&&&&&&&&&&&&&&&&&&&&&......O  ..%%%&..&&&&&&&&&&&&&&&&&&&&&&&&&&",
"&&&&&&&&&&&&&&&&&&&&&ooX... OX  #%%...&&&&&&&&&&&&&&&&&&&&&&&&&&",
"&&&&&&&&&&&&&&&&&&&&ooooX.. OX&&###..$$$&&&&&&&&&&&&&&&&&&&&&&&&",
"&&&&&&&&&&&&&&&&&&&ooooXX.   @X&&&..    $$$&&&&&&&&&&&&&&&&&&&&&",
"&&&&&&&&&&&&&&&&&XXoooXXX    @X&&..o o     $$&&&&&&&&&&&&&&&&&&&",
"&&&&&&&&&&&&&&&&OOXXXXOO      @X.      o     $$&&&&&&&&&&&&&&&&&",
"&&&&&&&&&&&&&&&&&&O@@@        @X.              $$&&&&&&&&&&&&&&&",
"&&&&&&&&&&&&&&&&&&&&&&         OX..&&&&          $$&&&&&&&&&&&&&",
"&&&&&&&&&&&&&&&&&&&&&&&        OX&&&&&&&&&         $$&&&&&&&&&&&",
"&&&&&&&&&&&&&&&&&&&&&&&&    ...OO&&&&&&&&&&&&        $$&&&&&&&&&",
"&&&&&&&&&&&&&&&&&&&&&&&&&   .XX&O&&&&&&&&&&&&&&&       $$&&&&&&&",
"&&&&&&&&&&&&&&&&&&&&&&&&&&  .XX&O&&&&&&&&&&&&&&&&&       $$&&&&&",
"&&&&&&&&&&&&&&&&&&&&&&&&&&.  ..&&&&&&&&&&&&&&&&&&&&&       $$&&&",
"&&&&&&&&&&&&&&&&&&&&&&&&&&...  &&&&&&&&&&&&&&&&&&&&&&&       $&&",
"&&&&&&&&&&&&&&&&&&&&&&&&&....   &&&&&&&&&&&&&&&&&&&&&&&&      $&",
"&&&&&&&&&&&&&&&&&&&&&&&&&...    &&&&&&&&&&&&&&&&&&&&&&&&&&     $",
"&&&&&&&&&&&&&&&&&&&&&&&&... &   &&&&&&&&&&&&&&&&&&&&&&&&&&&&   $",
"&&&&&&&&&&&&&&&&&&&&&&&&.. &&&   &&&&&&&&&&&&&&&&&&&&&&&&&&&&  $",
"$$$$&&&&&&&&&&&&&&&&&&&... &&&   &&&&&&&&&&&&&&&&&&&&$$$$$$$&& $",
"&$$$$$$&&&&&&&&&&&&&&&&.. &&&&&   &&&&&&&&&&&&&&&&$$$$$$$$&&&&&&",
"&&&&&$$$$$$$$$$$$$$$&&&.. &&&&&   &&&&&&&$$$$$$$$$$$$$$&&&&&&&&&",
"&&&&&&&&&$$$$$$$$$&&&&&.XXX&&&&&   &&&$$$$$$$&&&&&&&&&&&&&&&&&&&",
"&&&&&&&&&&&&&&&&&&&&&&&.....&&&&    &&&&&&&&&&&&&&&&&&&&&&&&&&&&",
"&&&&&&&&&&&&&&&&&&&&&&&&&&&&&&&&&&&&&&&&&&&&&&&&&&&&&&&&&&&&&&&&"
};
