/* XPM */
static char *result[] = {
/* columns rows colors chars-per-pixel */
"64 64 12 1 ",
"  c #300F0A",
". c #550F0A",
"X c #A02018",
"o c #B84936",
"O c #CF4521",
"+ c #DF7E27",
"@ c #AD5B40",
"# c #F0D71E",
"$ c #E3936B",
"% c #F5C187",
"& c #F5DDA6",
"* c None",
/* pixels */
"****************************************************************",
"****************************************************************",
"****************************************************************",
"****************************************************************",
"****************************************************************",
"****************************************************************",
"****************************************************************",
"****************************************************************",
"****************************************************************",
"****************************************************************",
"****************************************************************",
"****************************************************************",
"****************************************************************",
"*******************%%%%*****************************************",
"*************%%%%%%*********************************************",
"**********%%****************************************************",
"********%%******************************************************",
"*****%%*********************************************************",
"*%%%%***********************************************************",
"%%**************************************************************",
"************************************************      **********",
"***********************************************        *********",
"**********************************************         *********",
"*************************************************$$$$  *********",
"********************************************OOO**@$@@ $*********",
"******************************************OOOOOOX&&&& $**OOO****",
"*****************************************OOOOOOXX   &$**XOOOOO**",
"*****************************************OOOOOXX+   @$+XXOOOOOO*",
"*****************************************OOOOXX+.++###+XXXOOOOO*",
"*****************************************XXXXX#.XXXX++XXXXXOOOO*",
"*****************************************++###.XOOOXX+XXXXXXXXX*",
"*****************************************.....XXOOOXX.+###XXXXX*",
"******************************************@&&@XOOOXX&*....#XXX**",
"******************************************$&&XXXXXX&&&**o..#++**",
"*****************************************$&&&XXXXX&&&&&$XX...***",
"*****************************************@&&$XXXX&&&&&$XX*******",
"*****************************************....XXX..&&$$XXX*******",
"*****************************************... X..... $XXXX*******",
"****************************************... $...   +++##+*******",
"****************************************$& $$   ++++ ....*******",
"***************************************$$&&$$XX. +X+ ..XXX******",
"*********************************.......$$$**XX. +X+ .XXOOO*****",
"**********************************.   O .....XX. +X#  XXOOO*****",
"*********************************    O    %..XX  +X#   XXOOO****",
"********************************         %*XXXX  +X#   XXXOOO***",
"*******************************    O    %**XXX   #X#    +XXXX***",
"******************************         %**XXX+   #X+*    +###+**",
"****************************          %**++##   #XX+*      *****",
"**************************           %*****    #XX+***     *****",
"************************            %******  ++XX#****     *****",
"**********************             %*******++++##******    *****",
"*******************               %********     *******   .*****",
"%**************                 %%**********     ******.... ****",
"*%*********                   %%************ .... ******.XX ****",
"********                    %%*************** XX .******    ****",
"****%%                   %%%******************  ..******* ..****",
"******%%%%            %%%********************** ...****** ..****",
"**********%%%%%%%%%%%%************************** ..****** ...***",
"************************************************* ..****** ..***",
"**************************************************X. ***** ..***",
"**************************************************XX ***** .XX**",
"*************************************************... ****** ..**",
"*************************************************.. ******* ..**",
"****************************************************************"
};
