/* XPM */
static char *result[] = {
/* columns rows colors chars-per-pixel */
"64 64 11 1 ",
"  c #300F0A",
". c #550F0A",
"X c #A02018",
"o c #CF4521",
"O c #DF7E27",
"+ c #AD5B40",
"@ c #F0D71E",
"# c #E3936B",
"$ c #F5C187",
"% c #F5DDA6",
"& c None",
/* pixels */
"&&&&&&&&&&&&&&&&&&&&&&&&&&&&&&&&&&&&&&&&&&&&&&&&&&&&&&&&&&&&&&&&",
"&&&&&&&&&&&&&&&&&&&&&&&&&&&&&&&&&&&&&&&&&&&&&&&&&&&&&&&&&&&&&&&&",
"&&&&&&&&&&&&&&&&&&&&&&&&&&&&&&&&&&&&&&&&&&&&&&&&&&&&&&&&&&&&&&&&",
"&&&&&&&&&&&&&&&&&&&&&&&&&&&&&&&&&&&&&&&&&&&&&&&&&&&&&&&&&&&&&&&&",
"&&&&&&&&&&&&&&&&&&&&&&&&&&&&&&&&&&&&&&&&&&&&&&&&&&&&&&&&&&&&&&&&",
"&&&&&&&&&&&&&&&&&&&&&&&&&&&&&&&&&&&&&&&&&&&&&&&&&&&&&&&&&&&&&&&&",
"&&&&&&&&&&&&&&&&&&&&&&&&&&&&&&&&&&&&&&&&&&&&&&&&&&&&&&&&&&&&&&&&",
"&&&&&&&&&&&&&&&&&&&&&&&&&&&&&&&&&&&&&&&&&&&&&&&&&&&&&&&&&&&&&&&&",
"&&&&&&&&&&&&&&&&&&&&&&&&&&&&&&&&&&&&&&&&&&&&&&&&&&&&&&&&&&&&&&&&",
"&&&&&&&&&&&&&&&&&&&&&&&&&&&&&&&&&&&&&&&&&&&&&&&&&&&&&&&&&&&&&&&&",
"&&&&&&&&&&&&&&&&&&&&&&&&&&&&&&&&&&&&&&&&&&&&&&&&&&&&&&&&&&&&&&&&",
"&&&&&&&&&&&&&&&&&&&&&&&&&&&&&&&&&&&&&&&&&&&&&&&&&&$$$$$$&&&&&&&&",
"&&&&&&&&&&&&&&&&&&&&&&&&&&&&&&&&&&&&&&&&&&&&&&&$$$      $$&&&&&&",
"&&&&&&&&&&&&&&&&&&&&&&&&&&&&&&&&&&&&&&&&&&&&$$$        &&&&&&&$$",
"&&&&&&&&&&&&&&&&&&&&&&&&&&&&&&&&&&&&&&&&&&$$        &&&&&&&$$$$$",
"&&&&&&&&&&&&&&&&&&&&&&&&&&&&&&&&&&&&&&&&$$        &&&&&&&&&&&$$$",
"&&&&&&&&&&&&&&&&&&&&&&&&&&&&&&&&&&&&&&$$        &&&&&&&&&&&&&&&&",
"&&&&&&&&&&&&&&&&&&&&&&&&&&&&&&&&&&&&&$        &&&&&&&&&&&&&&&&&&",
"&&&&&&&&&&&&&&&&&&&&&&&&&&&&&&&&&&&&$       &&&&&&&&&&&&&&&&&&&&",
"&&&&&&&&&&&&&&&&&&&&&&&&&&&&&&&&&&&$       &&&&&&&&&&&&&&&&&&&&&",
"&&&&&&&&&&&&&&&      &&&&&&&&&&&&&$  o    &&&&&&&&&&&&&&&&&&&&&&",
"&&&&&&&&&&&&&&        &&&&&&&&&...  o    &&&&&&&&&&&&&&&&&&&&&&&",
"&&&&&&&&&&&&&&        &&&&&&&&&%%%.o    &&&&&&&&&&&&&&&&&&&&&&&&",
"&&&&&&&&&&&&&&  ####&&&&&&&&&&&%%#.... &&&&&&&&&&&&&&&&&&&&&&&&&",
"&&&&&&&&&&&&&&# ++#+&&&&&&&&&&...##....&&&&&&&&&&&&&&&&&&&&&&&&&",
"&&&&&&&&&&&&&&# %%%%&ooo&&&&.... &&&&&..&&&&&&&&&&&&&&&&&&&&&&&&",
"&&&&&&&&&&&&&&&#%   XXooo&&%%.. &&&&&&&&&&&&&&&&&&&&&&&&&&&&&&&&",
"&&&&&&&&&oooX&&#+   XXXXXX%%%. &&&&&&&&&&&&&&&&&&&&&&&&&&&&&&&&&",
"&&&&&&&&oooooXOOO+++OO@@O#%%##&&&&&&&&&&&&&&&&&&&&&&&&&&&&&&&&&&",
"&&&&&&&ooooooXXOOO@@...++####&&&&&&&&&&&&&&&&&&&&&&&&&&&&&&&&&&&",
"&&&&&&XoooooooXOXXXXXXX..+##&&&&&&&&&&&&&&&&&&&&&&&&&&&&&&&&&&&&",
"&&&&&&XXXoooooXXOXXXoooX..+&&&&&&&&&&&&&&&&&&&&&&&&&&&&&&&&&&&&&",
"&&&&&&XXXXXXXXXO.XooooooX.&&&&&&&&&&&&&&&&&&&&&&&&&&&&&&&&&&&&&&",
"&&&&&&OOOXXXXX@..XooXXXXX.&&&&&&&&&&&&&&&&&&&&&&&&&&&&&&&&&&&&&&",
"&&&&&&&..O@@@@...XXXX....&&&&&&&&&&&&&&&&&&&&&&&&&&&&&&&&&&&&&&&",
"&&&&&&&++............XXXX&&&&&&&&&&&&&&&&&&&&&&&&&&&&&&&&&&&&&&&",
"&&&&&&&%%+++....XXXXXoooX&&&&&&&&&&&&&&&&&&&&&&&&&&&&&&&&&&&&&&&",
"&&&&&&%%%%#&&XXXXXXXoooXX&&&&&&&&&&&&&&&&&&&&&&&&&&&&&&&&&&&&&&&",
"&&&&&&%%%##&&&XXXXXXXooXX&&&&&&&&&&&&&&&&&&&&&&&&&&&&&&&&&&&&&&&",
"&&&&&%%%#&&&&&XXXXXXXXXXX&&&&&&&&&&&&&&&&&&&&&&&&&&&&&&&&&&&&&&&",
"&&&&...#&&&&&&&XXXXXXX@@OO&&&&&&&&&&&&&&&&&&&&&&&&&&&&&&&&&&&&&&",
"&&&.... &&&&&&&OO@@@@@  ...&&&&&&&&&&&&&&&&&&&&&&&&&&&&&&&&&&&&&",
"&&.... &&&&&&&.... OXXO  .XoooooXO&&&&&&&&&&&&&&&&&&&&&&&&&&&&&&",
"%%... &&&&&&oooXX. OXXX@  XXoooXX@&&&&&&&&&&&&&&&&&&&&&&&&&&&&&&",
"##%  &&&&&oooooXX.  OXX@   XXXXX@&&&&&&&&&&&&&&&&&&&&&&&&&&&&&&&",
"&&##&&&&XXooooXXX   @XX@    OO@@&&&&&&&&&&&&&&&&&&&&&&&&&&&&&&&&",
"&&&&&&&OOXXooXX     @XXO       &&&&&&&&&&&&&&&&&&&&&&&&&&&&&&&&&",
"&&&&&&&&&@@XXXO      @XXO      &&&&&&&&&&&&&&&&&&&&&&&&&&&&&&&&&",
"&&&&&&&&&&&@OO      &@XXO       &&&&&&&&&&&&&&&&&&&&&&&&&&&&&&&&",
"&&&&&&&&&&&&        &OXXO       &&&&&&&&&&&&&&&&&&&&&&&&&&&&&&&&",
"&&&&&&&&&&&&       &OXXXO&     .&&&&&&&&&&&&&&&&&&&&&&&&&&&$$$$$",
"&&&&&&&&&&&&       &OXXXO&&  ..XX&&&&&&&&&&&&&&&&&&&&&$$$$$$$$$&",
"&&&&&&&&&&&....   OO@@@O&&&& ...XX&&&&&&&&&&&&&&$$$$$$$$$$&&&&&&",
"&&&&&&&&&& .XX..&&&&&&&&&&&&& ....&&&&&&&&&$$$$$$$$$$$$&&&&&&&&&",
"&&&&&&&&&.. ...&&&&&&&&&&&&&&&    &&&$$$$$$$$$$$&&&&&&&&&&&&&&&&",
"&&&&&&&&...   &&&&&&&&&&&&&&&&$$$$$$$$$$$$&&&&&&&&&&&&&&&&&&&&&&",
"&&&&&&&&...  &&&&&&&&&$$$$$$$$$$$$$$$&&&&&&&&&&&&&&&&&&&&&&&&&&&",
"&&&&&&&... &&&&&$$$$$$$$$&&&&&&& ...&&&&&&&&&&&&&&&&&&&&&&&&&&&&",
"&&&&&&... &&&&&&&&&&&&&&&&&&&&&&& ...&&&&&&&&&&&&&&&&&&&&&&&&&&&",
"&&&&&... &&&&&&&&&&&&&&&&&&&&&&&&& ...&&&&&&&&&&&&&&&&&&&&&&&&&&",
"&&&& ...&&&&&&&&&&&&&&&&&&&&&&&&&&& ..X&&&&&&&&&&&&&&&&&&&&&&&&&",
"&&&& .XX&&&&&&&&&&&&&&&&&&&&&&&&&&&& .XX&&&&&&&&&&&&&&&&&&&&&&&&",
"&&&& ....&&&&&&&&&&&&&&&&&&&&&&&&&&& ....&&&&&&&&&&&&&&&&&&&&&&&",
"&&&&&&&&&&&&&&&&&&&&&&&&&&&&&&&&&&&&&&&&&&&&&&&&&&&&&&&&&&&&&&&&"
};
