/* XPM */
static char *result[] = {
/* columns rows colors chars-per-pixel */
"35 50 23 1 ",
"  c gray62",
". c #038500",
"X c #FF2929",
"o c #D59393",
"O c #4C852E",
"+ c #DA9191",
"@ c #FF4343",
"# c #DA9E9E",
"$ c #FF3E3E",
"% c #FF5454",
"& c #FF1313",
"* c #FF4040",
"= c #FF4A4A",
"- c #FF4F4F",
"; c #FF2121",
": c #FF0808",
"> c red",
", c #FF2D2D",
"< c #FF4B4B",
"1 c #F70202",
"2 c #DE0B0B",
"3 c #D20F0F",
"4 c white",
/* pixels */
"                                   ",
"                                   ",
"                                   ",
"                                   ",
"                                   ",
"                   ............    ",
"                   ............    ",
"                   ............    ",
"                   ............    ",
"               ................    ",
"               ................    ",
"               ................    ",
"               ................    ",
"               ....                ",
"               ....                ",
"               ....                ",
"               ....                ",
"               ....                ",
"               ....                ",
"               ....                ",
"               ....                ",
"   XXXXooooooooOOOO++++++++@@@@####",
"   XXXXooooooooOOOO++++++++@@@@####",
"   XXXXooooooooOOOO++++++++@@@@####",
"   XXXXooooooooOOOO++++++++@@@@####",
"$$$%%%%&&&&&&&&****========%%%%@@@@",
"$$$%%%%&&&&&&&&****========%%%%@@@@",
"$$$%%%%&&&&&&&&****========%%%%@@@@",
"$$$%%%%&&&&&&&&****========%%%%@@@@",
"---;;;;::::::::::::::::::::>>>>>>>>",
"---;;;;::::::::::::::::::::>>>>>>>>",
"---;;;;::::::::::::::::::::>>>>>>>>",
"---;;;;::::::::::::::::::::>>>>>>>>",
"---;;;;::::::::::::::::::::>>>>>>>>",
"---;;;;::::::::::::::::::::>>>>>>>>",
"---;;;;::::::::::::::::::::>>>>>>>>",
"---;;;;::::::::::::::::::::>>>>>>>>",
",,,>>>>>>>>>>>>>>>>>>>>>>>>>>>>>>>>",
",,,>>>>>>>>>>>>>>>>>>>>>>>>>>>>>>>>",
",,,>>>>>>>>>>>>>>>>>>>>>>>>>>>>>>>>",
",,,>>>>>>>>>>>>>>>>>>>>>>>>>>>>>>>>",
"<<<>>>>>>>>>>>>>>>>>>>>>>>>>>>>1111",
"<<<>>>>>>>>>>>>>>>>>>>>>>>>>>>>1111",
"<<<>>>>>>>>>>>>>>>>>>>>>>>>>>>>1111",
"<<<>>>>>>>>>>>>>>>>>>>>>>>>>>>>1111",
"<<<>>>>>>>>>>>>>>>>>>>>>>>>>>>>1111",
"<<<>>>>>>>>>>>>>>>>>>>>>>>>>>>>1111",
"<<<>>>>>>>>>>>>>>>>>>>>>>>>>>>>1111",
"<<<>>>>>>>>>>>>>>>>>>>>>>>>>>>>1111",
">>>>>>>>>>>>>>>222211111111>>>>3333"
};
