/* XPM */
static char *result[] = {
/* columns rows colors chars-per-pixel */
"35 50 10 1 ",
"  c #75501B",
". c #623B1E",
"X c #5F371D",
"o c #653F1D",
"O c #5B381F",
"+ c #663E1E",
"@ c #673D1B",
"# c #704F1C",
"$ c #70461C",
"% c white",
/* pixels */
"      ................XXXXXXXXXXXXX",
"      ................XXXXXXXXXXXXX",
"      ................XXXXXXXXXXXXX",
"      ................XXXXXXXXXXXXX",
"      ................XXXXXXXXXXXXX",
"      ................XXXXXXXXXXXXX",
"ooooooOOOOOOOOOOOOOOOO+++++++++++++",
"ooooooOOOOOOOOOOOOOOOO+++++++++++++",
"ooooooOOOOOOOOOOOOOOOO+++++++++++++",
"ooooooOOOOOOOOOOOOOOOO+++++++++++++",
"ooooooOOOOOOOOOOOOOOOO+++++++++++++",
"ooooooOOOOOOOOOOOOOOOO+++++++++++++",
"ooooooOOOOOOOOOOOOOOOO+++++++++++++",
"ooooooOOOOOOOOOOOOOOOO+++++++++++++",
"ooooooOOOOOOOOOOOOOOOO+++++++++++++",
"ooooooOOOOOOOOOOOOOOOO+++++++++++++",
"ooooooOOOOOOOOOOOOOOOO+++++++++++++",
"ooooooOOOOOOOOOOOOOOOO+++++++++++++",
"ooooooOOOOOOOOOOOOOOOO+++++++++++++",
"ooooooOOOOOOOOOOOOOOOO+++++++++++++",
"ooooooOOOOOOOOOOOOOOOO+++++++++++++",
"ooooooOOOOOOOOOOOOOOOO+++++++++++++",
"@@@@@@XXXXXXXXXXXXXXXX+++++++++++++",
"@@@@@@XXXXXXXXXXXXXXXX+++++++++++++",
"@@@@@@XXXXXXXXXXXXXXXX+++++++++++++",
"@@@@@@XXXXXXXXXXXXXXXX+++++++++++++",
"@@@@@@XXXXXXXXXXXXXXXX+++++++++++++",
"@@@@@@XXXXXXXXXXXXXXXX+++++++++++++",
"@@@@@@XXXXXXXXXXXXXXXX+++++++++++++",
"@@@@@@XXXXXXXXXXXXXXXX+++++++++++++",
"@@@@@@XXXXXXXXXXXXXXXX+++++++++++++",
"@@@@@@XXXXXXXXXXXXXXXX+++++++++++++",
"@@@@@@XXXXXXXXXXXXXXXX+++++++++++++",
"@@@@@@XXXXXXXXXXXXXXXX+++++++++++++",
"@@@@@@XXXXXXXXXXXXXXXX+++++++++++++",
"@@@@@@XXXXXXXXXXXXXXXX+++++++++++++",
"@@@@@@XXXXXXXXXXXXXXXX+++++++++++++",
"@@@@@@XXXXXXXXXXXXXXXX+++++++++++++",
"@@@@@@################$$$$$$$$$$$$$",
"@@@@@@################$$$$$$$$$$$$$",
"@@@@@@################$$$$$$$$$$$$$",
"@@@@@@################$$$$$$$$$$$$$",
"@@@@@@################$$$$$$$$$$$$$",
"@@@@@@################$$$$$$$$$$$$$",
"@@@@@@################$$$$$$$$$$$$$",
"@@@@@@################$$$$$$$$$$$$$",
"@@@@@@################$$$$$$$$$$$$$",
"@@@@@@################$$$$$$$$$$$$$",
"@@@@@@################$$$$$$$$$$$$$",
"@@@@@@################$$$$$$$$$$$$$"
};
