/* XPM */
static char *result[] = {
/* columns rows colors chars-per-pixel */
"35 50 37 1 ",
"  c #53DECA",
". c #1DB57C",
"X c #1AAA66",
"o c #188757",
"O c #187C4C",
"+ c #187048",
"@ c #1ADE66",
"# c #1AD65D",
"$ c #18CA4F",
"% c #188534",
"& c #18BD4A",
"* c #18A246",
"= c #18D657",
"- c #18D44F",
"; c #181A18",
": c #18BD46",
"> c #18CA51",
", c #18D64C",
"< c #185B27",
"1 c #181818",
"2 c #18D848",
"3 c #18D24C",
"4 c #18D84C",
"5 c #18DE46",
"6 c #18B548",
"7 c #18C348",
"8 c #185727",
"9 c #18B744",
"0 c #188D44",
"q c #189E44",
"w c #18C146",
"e c #188542",
"r c #18A242",
"t c #188738",
"y c #18873E",
"u c #189340",
"i c white",
/* pixels */
" .......XXXXXXoooooooOOOOOOO+++++++",
" .......XXXXXXoooooooOOOOOOO+++++++",
" .......XXXXXXoooooooOOOOOOO+++++++",
"@#######$$$$$$%%%%%%%&&&&&&&*******",
"@#######$$$$$$%%%%%%%&&&&&&&*******",
"@#######$$$$$$%%%%%%%&&&&&&&*******",
"@#######$$$$$$%%%%%%%&&&&&&&*******",
"@#######$$$$$$%%%%%%%&&&&&&&*******",
"@#######$$$$$$%%%%%%%&&&&&&&*******",
"@#######$$$$$$%%%%%%%&&&&&&&*******",
"=-------%%%%%%;;;;;;;%%%%%%%:::::::",
"=-------%%%%%%;;;;;;;%%%%%%%:::::::",
"=-------%%%%%%;;;;;;;%%%%%%%:::::::",
"=-------%%%%%%;;;;;;;%%%%%%%:::::::",
"=-------%%%%%%;;;;;;;%%%%%%%:::::::",
"=-------%%%%%%;;;;;;;%%%%%%%:::::::",
"=-------%%%%%%;;;;;;;%%%%%%%:::::::",
">,,,,,,,<<<<<<1111111<<<<<<<2222222",
">,,,,,,,<<<<<<1111111<<<<<<<2222222",
">,,,,,,,<<<<<<1111111<<<<<<<2222222",
">,,,,,,,<<<<<<1111111<<<<<<<2222222",
">,,,,,,,<<<<<<1111111<<<<<<<2222222",
">,,,,,,,<<<<<<1111111<<<<<<<2222222",
"34444444<<<<<<1111111<<<<<<<5555555",
"34444444<<<<<<1111111<<<<<<<5555555",
"34444444<<<<<<1111111<<<<<<<5555555",
"34444444<<<<<<1111111<<<<<<<5555555",
"34444444<<<<<<1111111<<<<<<<5555555",
"34444444<<<<<<1111111<<<<<<<5555555",
"34444444<<<<<<1111111<<<<<<<5555555",
"67777777<<<<<<111111188888889999999",
"67777777<<<<<<111111188888889999999",
"67777777<<<<<<111111188888889999999",
"67777777<<<<<<111111188888889999999",
"67777777<<<<<<111111188888889999999",
"67777777<<<<<<111111188888889999999",
"67777777<<<<<<111111188888889999999",
"0qqqqqqq%%%%%%1111111%%%%%%%wwwwwww",
"0qqqqqqq%%%%%%1111111%%%%%%%wwwwwww",
"0qqqqqqq%%%%%%1111111%%%%%%%wwwwwww",
"0qqqqqqq%%%%%%1111111%%%%%%%wwwwwww",
"0qqqqqqq%%%%%%1111111%%%%%%%wwwwwww",
"0qqqqqqq%%%%%%1111111%%%%%%%wwwwwww",
"0qqqqqqq%%%%%%1111111%%%%%%%wwwwwww",
"errrrrrrtttttt%%%%%%%yyyyyyyuuuuuuu",
"errrrrrrtttttt%%%%%%%yyyyyyyuuuuuuu",
"errrrrrrtttttt%%%%%%%yyyyyyyuuuuuuu",
"errrrrrrtttttt%%%%%%%yyyyyyyuuuuuuu",
"errrrrrrtttttt%%%%%%%yyyyyyyuuuuuuu",
"errrrrrrtttttt%%%%%%%yyyyyyyuuuuuuu"
};
