/* XPM */
static char *result[] = {
/* columns rows colors chars-per-pixel */
"35 50 10 1 ",
"  c #431D5A",
". c #361749",
"X c #110915",
"o c #281137",
"O c #210E2E",
"+ c #0C0711",
"@ c #1C0D26",
"# c #431D5B",
"$ c #110A15",
"% c white",
/* pixels */
"        ..........................X",
"        ..........................X",
"        ..........................X",
"        ..........................X",
"        ..........................X",
"        ..........................X",
"        ..........................X",
"        ..........................X",
"ooooooooOOOOOOOOOOOOOOOOOXXXXXXXXX+",
"ooooooooOOOOOOOOOOOOOOOOOXXXXXXXXX+",
"ooooooooOOOOOOOOOOOOOOOOOXXXXXXXXX+",
"ooooooooOOOOOOOOOOOOOOOOOXXXXXXXXX+",
"ooooooooOOOOOOOOOOOOOOOOOXXXXXXXXX+",
"ooooooooOOOOOOOOOOOOOOOOOXXXXXXXXX+",
"ooooooooOOOOOOOOOOOOOOOOOXXXXXXXXX+",
"ooooooooOOOOOOOOOOOOOOOOOXXXXXXXXX+",
"ooooooooOOOOOOOOOOOOOOOOOXXXXXXXXX+",
"ooooooooOOOOOOOOOOOOOOOOOXXXXXXXXX+",
"ooooooooOOOOOOOOOOOOOOOOOXXXXXXXXX+",
"ooooooooOOOOOOOOOOOOOOOOOXXXXXXXXX+",
"ooooooooOOOOOOOOOOOOOOOOOXXXXXXXXX+",
"ooooooooOOOOOOOOOOOOOOOOOXXXXXXXXX+",
"ooooooooOOOOOOOOOOOOOOOOOXXXXXXXXX+",
"ooooooooOOOOOOOOOOOOOOOOOXXXXXXXXX+",
"ooooooooOOOOOOOOOOOOOOOOOXXXXXXXXX+",
"oooooooo@@@@@@@@@@@@@@@@@XXXXXXXXX+",
"oooooooo@@@@@@@@@@@@@@@@@XXXXXXXXX+",
"oooooooo@@@@@@@@@@@@@@@@@XXXXXXXXX+",
"oooooooo@@@@@@@@@@@@@@@@@XXXXXXXXX+",
"oooooooo@@@@@@@@@@@@@@@@@XXXXXXXXX+",
"oooooooo@@@@@@@@@@@@@@@@@XXXXXXXXX+",
"oooooooo@@@@@@@@@@@@@@@@@XXXXXXXXX+",
"oooooooo@@@@@@@@@@@@@@@@@XXXXXXXXX+",
"oooooooo@@@@@@@@@@@@@@@@@XXXXXXXXX+",
"ooooooooXXXXXXXXXXXXXXXXX+++++++++#",
"ooooooooXXXXXXXXXXXXXXXXX+++++++++#",
"ooooooooXXXXXXXXXXXXXXXXX+++++++++#",
"ooooooooXXXXXXXXXXXXXXXXX+++++++++#",
"ooooooooXXXXXXXXXXXXXXXXX+++++++++#",
"ooooooooXXXXXXXXXXXXXXXXX+++++++++#",
"ooooooooXXXXXXXXXXXXXXXXX+++++++++#",
"ooooooooXXXXXXXXXXXXXXXXX+++++++++#",
"oooooooo$$$$$$$$$XXXXXXXX+++++++++#",
"oooooooo$$$$$$$$$XXXXXXXX+++++++++#",
"oooooooo$$$$$$$$$XXXXXXXX+++++++++#",
"oooooooo$$$$$$$$$XXXXXXXX+++++++++#",
"oooooooo$$$$$$$$$XXXXXXXX+++++++++#",
"oooooooo$$$$$$$$$XXXXXXXX+++++++++#",
"oooooooo$$$$$$$$$XXXXXXXX+++++++++#",
"oooooooo$$$$$$$$$XXXXXXXX+++++++++#"
};
