/* XPM */
static char *result[] = {
/* columns rows colors chars-per-pixel */
"64 64 11 1 ",
"  c #181220",
". c #251E30",
"X c #551C1F",
"o c #00627C",
"O c #854024",
"+ c #CD9152",
"@ c #00AED7",
"a c #3C2312",
"b c #482B16",
"d c #54301B",
"e c #52371E",
/* pixels */
"edddbdedddddbdddbddddbddaeddddbdedddbdedddddbdddbddddbddaeddddbd",
"addbdddadbdbddbbdaadddbdddddddaeaddbdddadbdbddbbdaadddbdddddddae",
"dbdbedddbdbedddddbdedbdbebdddbbddbdbadddbdbedddddbdedbdbebdddbbd",
"ddbaddbedbddddddddddbdbabbdaedddddbaddbedbddddddddddbdbabbdaeddd",
"ddddddbdddeddbdddbdadddddeddbdedddddddbdddeddbdddbdadddddeddbded",
"dddebbdddbdddddebddddbedbddddbdddddebbdddbdddddebddddbedbddddbdd",
"ddaabdddbdbdddbddbddddbaddddbdbaddaabdddbdbdddbddbddddbaddddbdba",
"eddbdbebdbddebdbdddadbdddddbddddeddbdbebdbddebdbdddadbdddddbdddd",
"ddbdbdddaddbbdadddddbbbddebabdddddbdbdddaddbbdadddddbbbddebabddd",
"dddbdddbdddbbbdeaddbebdddddbdddadddbdddbdddbbbdeaddbebdddddbddda",
"adbebdddadddbdddddbdbbddadbbdebdadbebdddadddbdddddbdbbddadbbdebd",
"dbebddddeddbebaddadbdddddbdbddaddbebddddeddbebaddadbdddddbdbddad",
"bdddddddddbbbbdddddbddbedbddd....dddddddddbbbbdddddbddbedbdddddd",
"ddedddaddbabbdebddddddddddd.......edddaddbabbdebdddddddddddddddb",
"dbadddedbdeddddbdbdddaddda.    ...adddedbdeddddbdbdddadddadddbbd",
"ddddbbdbddddddddbddeddbdd..    ....dbbdbddddddddbddeddbddbebdded",
"eddeddddddaddddadbdadbebd.      ....ddddddaddddadbdadbebddbdbdbd",
"ddbdadddddedddbddeddbdddd.      ..  adddddedddbddeddbddddbbddddd",
"dadeadddabdddbdedbebddbdd.       ..  dddabdddbdedbebddbdddbbbddd",
"bdbdebdebdddbdddddbbbddda.       .... debdddbdddddbbbdddaddbdedd",
"adbddddbbddbddbdbbdbdbddd  o  @  .... dbbddbddbdbbdbdbdddabddadb",
"dddeddbdbdbdddddbdbedddd.         ... bdbdbdddddbdbedddddbaebddd",
"adbdabdbbbddeddedadddbde.         ... .bbbddeddedadddbdeddddbbdd",
"ddddbdbbeddbdabbdddddddd..       ..   .beddbdabbddddddddbddbdddb",
"dddbbedbbdddddddbddedddd...     ...   .bbdddddddbddeddddbdbdbebd",
"dbddbddddbdddbddddbddbdb...     .    ...dbdddbddddbddbdbabdbbbad",
"dedbdddbdddbddddddebddbd ..    .    ....dddbddddddebddbdbbbebddd",
"edddbdedddddbdddbddddbd.   .  ..    .....dddbdddbddddbddaeddddbd",
"addbdddadbdbddbbdaaddd...  .  ..   ......bdbddbbdaadddbdddddddae",
"dbdbedddbdbedddddbded.. .. . ...  ........bedddddbdedbdbebdddbbd",
"ddbaddbedbddddddddddb. . . . ...  ..    ..ddddddddddbdbabbdaeddd",
"ddddddbdddeddbdddbda.. .  .. ....    ......ddbdddbdadddddeddbded",
"dddebbdddbdddddebddd. ...  .....   .   .....dddebddddbedbddddbdd",
"ddaabdddbdbdddbddbdd....OO ....  .....  ....ddbddbddddbaddddbdba",
"eddbdbebdbddebdbddda. ++X  ....OO    .. ... ebdbdddadbdddddbdddd",
"ddbdbdddaddbbdaddddd. OXX  ...O+++OX ......bbdadddddbbbddebabddd",
"dddbdddbdddbbbdeaddbe  ++  ....O++OX ..... bbbdeaddbebdddddbddda",
"adbebdddadddbdddddbdbb      ...OOO   ....  dbdddddbdbbddadbbdebd",
"dbebddddeddbebaddadbdd    . ...      .... dbebaddadbdddddbdbddad",
"bdddddddddbbbbdddddbdd      ...  .   ...  bbbbdddddbddbedbdddddd",
"ddedddaddbabbdebdddddd      . .  ..  ...  abbdebdddddddddddddddb",
"dbadddedbdeddddbdbddda      . .  ..  ...  eddddbdbdddadddadddbbd",
"ddddbbdbddddddddbddeddb     . . . .  . .  ddddddbddeddbddbebdded",
"eddeddddddaddddadbdadbeb    . . . .  . d  addddadbdadbebddbdbdbd",
"ddbdadddddedddbddeddbddd  .   . .      d  edddbddeddbddddbbddddd",
"dadeadddabdddbdedbebddbd  .   . .      da dddbdedbebddbdddbbbddd",
"bdbdebdebdddbdddddbbbddd d.   . .      eb ddbdddddbbbdddaddbdedd",
"adbddddbbddbddbdbbdbdbddda.   . . .  d bbddbddbdbbdbdbdddabddadb",
"dddeddbdbdbdddddbdbedddddba . . . d  dbdbdbdddddbdbedddddbaebddd",
"adbdabdbbbddeddedadddbdeddd . . . b. bdbbbddeddedadddbdeddddbbdd",
"ddddbdbbeddbdabbddddddddbdd.. . .ddd dbbeddbdabbddddddddbddbdddb",
"dddbbedbbdddddddbddeddddbdbdb . .ddbbedbbdddddddbddeddddbdbdbebd",
"dbddbddddbdddbddddbddbdbabdbbb. dbddbddddbdddbddddbddbdbabdbbbad",
"dedbdddbdddbddddddebddbdbbbebdd dedbdddbdddbddddddebddbdbbbebddd",
"edddbdedddddbdddbddddbddaeddddbdedddbdedddddbdddbddddbddaeddddbd",
"addbdddadbdbddbbdaadddbdddddddaeaddbdddadbdbddbbdaadddbdddddddae",
"dbdbedddbdbedddddbdedbdbebdddbbddbdbadddbdbedddddbdedbdbebdddbbd",
"ddbaddbedbddddddddddbdbabbdaedddddbaddbedbddddddddddbdbabbdaeddd",
"ddddddbdddeddbdddbdadddddeddbdedddddddbdddeddbdddbdadddddeddbded",
"dddebbdddbdddddebddddbedbddddbdddddebbdddbdddddebddddbedbddddbdd",
"ddaabdddbdbdddbddbddddbaddddbdbaddaabdddbdbdddbddbddddbaddddbdba",
"eddbdbebdbddebdbdddadbdddddbddddeddbdbebdbddebdbdddadbdddddbdddd",
"ddbdbdddaddbbdadddddbbbddebabdddddbdbdddaddbbdadddddbbbddebabddd",
"dddbdddbdddbbbdeaddbebdddddbdddadddbdddbdddbbbdeaddbebdddddbddda"
};
