/* XPM */
static char *result[] = {
/* columns rows colors chars-per-pixel */
"64 64 11 1 ",
"  c #181220",
". c #251E30",
"X c #551C1F",
"o c #00627C",
"O c #854024",
"+ c #CD9152",
"@ c #00AED7",
"a c #3C2312",
"b c #482B16",
"d c #54301B",
"e c #52371E",
/* pixels */
"edddbdedddddbdddbddddbddaeddddbdedddbdedddddbdddbddddbddaeddddbd",
"addbdddadbdbddbbdaadddbdddddddaeaddbdddadbdbddbbdaadddbdddddddae",
"dbdbedddbdbedddddbdedbdbebdddbbddbdbadddbdbedddddbdedbdbebdddbbd",
"ddbaddbedbddddddddddbdbabbdaedddddbaddbedbddddddddddbdbabbdaeddd",
"ddddddbdddeddbdddbdadddddeddbdedddddddbdddeddbdddbdadddddeddbded",
"dddebbdddbdddddebddddbedbddddbdddddebbdddbdddddebddddbedbddddbdd",
"ddaabdddbdbdddbddbddddbaddddbdbaddaabdddbdbdddbddbddddbaddddbdba",
"eddbdbebdbddebdbdddadbdddddbddddeddbdbebdbddebdbdddadbdddddbdddd",
"ddbdbdddaddbbdadddddbbbddebabdddddbdbdddaddbbdadddddbbbddebabddd",
"dddbdddbdddbbbdeaddbebdddddbdddadddbdddbdddbbbdeaddbebdddddbddda",
"adbebdddadddbdddddbdbbddadbbdebdadbebdddadddbdddddbdbbddadbbdebd",
"dbebddddeddbebaddadbdddddbdbddaddbebddddeddbebaddadbdddddbdbddad",
"bdddddddddbbbbdddddbddbedbddddddbdddddddddbbbbdddddbddbedbdddddd",
"ddedddaddbabbdebdddddddddddddddbddedddaddbabbdebdddddddddddddddb",
"dbadddedbdeddddbdbdddadddadddb....adddedbdeddddbdbdddadddadddbbd",
"ddddbbdbddddddddbddeddbddbeb.......dbbdbddddddddbddeddbddbebdded",
"eddeddddddaddddadbdadbebddb.    ....ddddddaddddadbdadbebddbdbdbd",
"ddbdadddddedddbddeddbddddb..    ....adddddedddbddeddbddddbbddddd",
"dadeadddabdddbdedbebddbddd.      ....dddabdddbdedbebddbdddbbbddd",
"bdbdebdebdddbdddddbbbdddad.  o    .  bdebdddbdddddbbbdddaddbdedd",
"adbddddbbddbddbdbbdbdbddd . oooo  ..  dbbddbddbdbbdbdbdddabddadb",
"dddeddbdbdbdddddbdbedddd .   oo   ....  bdbdddddbdbedddddbaebddd",
"adbdabdbbbddeddedadddbded.  o  @   ... bbbddeddedadddbdeddddbbdd",
"ddddbdbbeddbdabbddddddddb.     oo  ... beddbdabbddddddddbddbdddb",
"dddbbedbbdddddddbddedddd..   oooo  ... .bdddddddbddeddddbdbdbebd",
"dbddbddddbdddbddddbddbdb..     o   ..  .dbdddbddddbddbdbabdbbbad",
"dedbdddbdddbddddddebddbd...       ...  .dddbddddddebddbdbbbebddd",
"edddbdedddddbdddbddddbdd....      ..  ...dddbdddbddddbddaeddddbd",
"addbdddadbdbddbbdaadddbd  ..    ...  .....dbddbbdaadddbdddddddae",
"dbdbedddbdbedddddbdedbdb    .  ..    ......edddddbdedbdbebdddbbd",
"ddbaddbedbddddddddddbdb...  .  ..   .......dddddddddbdbabbdaeddd",
"ddddddbdddeddbdddbdadd.. .. . ...  ........ddbdddbdadddddeddbded",
"dddebbdddbdddddebddddb. . . . ...  ..    ...dddebddddbedbddddbdd",
"ddaabdddbdbdddbddbdd...... .. ......  ......ddbddbddddbaddddbdba",
"eddbdbebdbddebdbddda....OO  .....  ...  .....bdbdddadbdddddbdddd",
"ddbdbdddaddbbdaddddd. O++   .....OO   .. ....  dddddbbbddebabddd",
"dddbdddbdddbbbdeaddb. OXX   ....++++OX . ...  deaddbebdddddbddda",
"adbebdddadddbdddddbd. ++X   .....O++OX .....bdddddbdbbddadbbdebd",
"dbebddddeddbebaddadbd       ...O++OO   .... ebaddadbdddddbdbddad",
"bdddddddddbbbbdddddbd        ....      ...   bdddddbddbedbdddddd",
"ddedddaddbabbdebdddd         ...      ....   debdddddddddddddddb",
"dbadddedbdeddddbdbd        . ...  .   ...     dbdbdddadddadddbbd",
"ddddbbdbddddddddbdde       . . .  ..  ...   ddddbddeddbddbebdded",
"eddeddddddaddddadbdadb     . . .  ..  ...   dddadbdadbebddbdbdbd",
"ddbdadddddedddbddeddbdd    .   . . .  . .    dbddeddbddddbbddddd",
"dadeadddabdddbdedbebdd       . . . .  . a     dedbebddbdddbbbddd",
"bdbdebdebdddbdddddbb       .   . .      bd...dddddbbbdddaddbdedd",
"adbddddbbddbddbdbbdbd      .   . .       ddbddbdbbdbdbdddabddadb",
"dddeddbdbdbdddddbdbeddd  ba.     .      .dbdddddbdbedddddbaebddd",
"adbdabdbbbddeddedadddbdeddd.     . .  d bbddeddedadddbdeddddbbdd",
"ddddbdbbeddbdabbddddddddbdd  . . . d.   eddbdabbddddddddbddbdddb",
"dddbbedbbdddddddbddeddddbd.. ... . b.  bbdddddddbddeddddbdbdbebd",
"dbddbddddbdddbddddbddbdbabd..b..  ddb.dddbdddbddddbddbdbabdbbbad",
"dedbdddbdddbddddddebddbdbbbebd   .dbdddbdddbddddddebddbdbbbebddd",
"edddbdedddddbdddbddddbddaeddddb  dddbdedddddbdddbddddbddaeddddbd",
"addbdddadbdbddbbdaadddbdddddddaeaddbdddadbdbddbbdaadddbdddddddae",
"dbdbedddbdbedddddbdedbdbebdddbbddbdbadddbdbedddddbdedbdbebdddbbd",
"ddbaddbedbddddddddddbdbabbdaedddddbaddbedbddddddddddbdbabbdaeddd",
"ddddddbdddeddbdddbdadddddeddbdedddddddbdddeddbdddbdadddddeddbded",
"dddebbdddbdddddebddddbedbddddbdddddebbdddbdddddebddddbedbddddbdd",
"ddaabdddbdbdddbddbddddbaddddbdbaddaabdddbdbdddbddbddddbaddddbdba",
"eddbdbebdbddebdbdddadbdddddbddddeddbdbebdbddebdbdddadbdddddbdddd",
"ddbdbdddaddbbdadddddbbbddebabdddddbdbdddaddbbdadddddbbbddebabddd",
"dddbdddbdddbbbdeaddbebdddddbdddadddbdddbdddbbbdeaddbebdddddbddda"
};
