/* XPM */
static char *result[] = {
/* columns rows colors chars-per-pixel */
"64 64 12 1 ",
"  c #181220",
". c #251E30",
"X c #551C1F",
"o c #00627C",
"O c #854024",
"+ c #CD9152",
"@ c #00AED7",
"# c #60DDF3",
"a c #3C2312",
"b c #482B16",
"d c #54301B",
"e c #52371E",
/* pixels */
"edddbdedddddbdddbddddbddaeddddbdedddbdedddddbdddbddddbddaeddddbd",
"addbdddadbdbddbbdaadddbdddddddaeaddbdddadbdbddbbdaadddbdddddddae",
"dbdbedddbdbedddddbdedbdbebdddbbddbdbadddbdbedddddbdedbdbebdddbbd",
"ddbaddbedbddddddddddbdbabbdaedddddbaddbedbddddddddddbdbabbdaeddd",
"ddddddbdddeddbdddbdadddddeddbdedddddddbdddeddbdddbdadddddeddbded",
"dddebbdddbdddddebddddbedbddddbdddddebbdddbdddddebddddbedbddddbdd",
"ddaabdddbdbdddbddbddddbaddddbdbaddaabdddbdbdddbddbddddbaddddbdba",
"eddbdbebdbddebdbdddadbdddddbddddeddbdbebdbddebdbdddadbdddddbdddd",
"ddbdbdddaddbbdadddddbbbddebabdddddbdbdddaddbbdadddddbbbddebabddd",
"dddbdddbdddbbbdeaddbebdddddbdddadddbdddbdddbbbdeaddbebdddddbddda",
"adbebdddadddbdddddbdbbddadbbdebdadbebdddadddbdddddbdbbddadbbdebd",
"dbebddddeddbebaddadbdddddbdbddaddbebddddeddbebaddadbdddddbdbddad",
"bdddddddddbbbbdddddbddbedbddddddbdddddddddbbbbdddddbddbedbdddddd",
"ddedddaddbabbdebdddddddddddddddbddedddaddbabbdebdddddddddddddddb",
"dbadddedbdeddddbdbdddadddadddbbddbadddedbdeddddbdbdddadddadddbbd",
"ddddbbdbddddddddbddeddbddbebddedddddbbdbddddddddbddeddbddbebdded",
"eddeddddddaddddadbdadbebddbdbdbdeddeddddddaddddadbdadbebddbdbdbd",
"ddbdadddddedddbddeddbddddbbdd.....bdadddddedddbddeddbddddbbddddd",
"dadeadddabdddbdedbebddbdddb........eadddabdddbdedbebddbdddbbbddd",
"bdbdebdebdddbdddddbbbdddad..    ....ebdebdddbdddddbbbdddaddbdedd",
"adbddddbbddbddbdbbdbdbddda..     ....ddbbddbddbdbbdbdbdddabddadb",
"dddeddbdbdbdddddbdbedddddb. o@@@o    dbdbdbdddddbdbedddddbaebddd",
"adbdabdbbbddeddedadddbdedd.o@@#@@o    dbbbddeddedadddbdeddddbbdd",
"ddddbdbbeddbdabbddddddddb..@@###@@.    beddbdabbddddddddbddbdddb",
"dddbbedbbdddddddbddeddddb..@  @  @..   bbdddddddbddeddddbdbdbebd",
"dbddbddddbdddbddddbddbdba. @  @  @ .   ddbdddbddddbddbdbabdbbbad",
"dedbdddbdddbddddddebddbdb. o#@ ##o ..  .dddbddddddebddbdbbbebddd",
"edddbdedddddbdddbddddbdda.  o@@@@o ..  .ddddbdddbddddbddaeddddbd",
"addbdddadbdbddbbdaadddbd..  @ # # ...  .dbdbddbbdaadddbdddddddae",
"dbdbedddbdbedddddbdedbdb...       ... ...dbedddddbdedbdbebdddbbd",
"ddbaddbedbddddddddddbdba. ..     ... ....bddddddddddbdbabbdaeddd",
"ddddddbdddeddbdddbdadddd.   .  ....  .....eddbdddbdadddddeddbded",
"dddebbdddbdddddebddddbe...  .  ..   ......dddddebddddbedbddddbdd",
"ddaabdddbdbdddbddbdddd.. .. . ...  ........dddbddbddddbaddddbdba",
"eddbdbebdbddebdbdddadb.   . . ...  ..    ..debdbdddadbdddddbdddd",
"ddbdbdddaddbbdadddddb..    .. ...     ......bdadddddbbbddebabddd",
"dddbdddbdddbbbdeaddbe. . ... ...  ...   .....bdeaddbebdddddbddda",
"adbebdddadddbdddddbdb.  ..OO . .... . .  ....dddddbdbbddadbbdebd",
"dbebddddeddbebaddadbdd. O++  ..OO     .. ... baddadbdddddbdbddad",
"bdddddddddbbbbdddddbdd. OXX  .O+++OX  ......bbdddddbddbedbdddddd",
"ddedddaddbabbdebddddddd  ++  O++++OX  ..... bdebdddddddddddddddb",
"dbadddedbdeddddbdbdddad     ...++O    ....  dddbdbdddadddadddbbd",
"ddddbbdbddddddddbddeddb      .        .... dddddbddeddbddbebdded",
"eddeddddddaddddadbdadbe      ...      ...  ddddadbdadbebddbdbdbd",
"ddbdadddddedddbddeddbdd      . .  ..  ...  dddbddeddbddddbbddddd",
"dadeadddabdddbdedbebddb      . .  ..  ...  ddbdedbebddbdddbbbddd",
"bdbdebdebdddbdddddbbbddd     . . . .  . .  dbdddddbbbdddaddbdedd",
"adbddddbbddbddbdbbdbdbddd    . . . .  . b  bddbdbbdbdbdddabddadb",
"dddeddbdbdbdddddbdbeddddd  .   . . .    b  dddddbdbedddddbaebddd",
"adbdabdbbbddeddedadddbded  .   . . .    b  deddedadddbdeddddbbdd",
"ddddbdbbeddbdabbddddddddb  .   . . .    e dbdabbddddddddbddbdddb",
"dddbbedbbdddddddbddeddddb. .   . . .  d b ddddddbddeddddbdbdbebd",
"dbddbddddbdddbddddbddbdbab b . . . d  ddd dddbddddbddbdbabdbbbad",
"dedbdddbdddbddddddebddbdbbbe . . . b. dbdddbddddddebddbdbbbebddd",
"edddbdedddddbdddbddddbddaedd.. . .dd  edddddbdddbddddbddaeddddbd",
"addbdddadbdbddbbdaadddbdddddd. . .db .dadbdbddbbdaadddbdddddddae",
"dbdbedddbdbedddddbdedbdbebddd.b. bdb dddbdbedddddbdedbdbebdddbbd",
"ddbaddbedbddddddddddbdbabbdaeddd dbaddbedbddddddddddbdbabbdaeddd",
"ddddddbdddeddbdddbdadddddeddbded.dddddbdddeddbdddbdadddddeddbded",
"dddebbdddbdddddebddddbedbddddbdddddebbdddbdddddebddddbedbddddbdd",
"ddaabdddbdbdddbddbddddbaddddbdbaddaabdddbdbdddbddbddddbaddddbdba",
"eddbdbebdbddebdbdddadbdddddbddddeddbdbebdbddebdbdddadbdddddbdddd",
"ddbdbdddaddbbdadddddbbbddebabdddddbdbdddaddbbdadddddbbbddebabddd",
"dddbdddbdddbbbdeaddbebdddddbdddadddbdddbdddbbbdeaddbebdddddbddda"
};
