/* XPM */
static char *result[] = {
/* columns rows colors chars-per-pixel */
"64 64 11 1 ",
"  c #181220",
". c #251E30",
"X c #551C1F",
"o c #00627C",
"O c #854024",
"+ c #CD9152",
"@ c #00AED7",
"a c #3C2312",
"b c #482B16",
"d c #54301B",
"e c #52371E",
/* pixels */
"edddbdedddddbdddbddddbddaeddddbdedddbdedddddbdddbddddbddaeddddbd",
"addbdddadbdbddbbdaadddbdddddddaeaddbdddadbdbddbbdaadddbdddddddae",
"dbdbedddbdbedddddbdedbdbebdddbbddbdbadddbdbedddddbdedbdbebdddbbd",
"ddbaddbedbddddddddddbdbabbdaedddddbaddbedbddddddddddbdbabbdaeddd",
"ddddddbdddeddbdddbdadddddeddbdedddddddbdddeddbdddbdadddddeddbded",
"dddebbdddbdddddebddddbedbddddbdddddebbdddbdddddebddddbedbddddbdd",
"ddaabdddbdbdddbddbddddbaddddbdbaddaabdddbdbdddbddbddddbaddddbdba",
"eddbdbebdbddebdbdddadbdddddbddddeddbdbebdbddebdbdddadbdddddbdddd",
"ddbdbdddaddbbdadddddbbbddebabdddddbdbdddaddbbdadddddbbbddebabddd",
"dddbdddbdddbbbdeaddbebdddddbdddadddbdddbdddbbbdeaddbebdddddbddda",
"adbebdddadddbdddddbdbbddadbbdebdadbebdddadddbdddddbdbbddadbbdebd",
"dbebddddeddbebaddadbdddddbdbddaddbebddddeddbebaddadbdddddbdbddad",
"bdddddddddbbbbdddddbddbedbddddddbdddddddddbbbbdddddbddbedbdddddd",
"ddedddaddbabbdebdddddddddddddddbddedddaddbabbdebdddddddddddddddb",
"dbadddedbdeddddbdbdddadddadddb....adddedbdeddddbdbdddadddadddbbd",
"ddddbbdbddddddddbddeddbddbeb.......dbbdbddddddddbddeddbddbebdded",
"eddeddddddaddddadbdadbebddb.    ....ddddddaddddadbdadbebddbdbdbd",
"ddbdadddddedddbddeddbddddb.      ....dddddedddbddeddbddddbbddddd",
"dadeadddabdddbdedbebddbddd.      ....dddabdddbdedbebddbdddbbbddd",
"bdbdebdebdddbdddddbbbdddad.   oo  .  .debdddbdddddbbbdddaddbdedd",
"adbddddbbddbddbdbbdbdbddd.. oooo   .  dbbddbddbdbbdbdbdddabddadb",
"dddeddbdbdbdddddbdbeddddd. oo@@@o  .   dbdbdddddbdbedddddbaebddd",
"adbdabdbbbddeddedadddbded.    o  o ..  bbbddeddedadddbdeddddbbdd",
"ddddbdbbeddbdabbddddddddb.    o  o ... beddbdabbddddddddbddbdddb",
"dddbbedbbdddddddbddedddd..  oooo@o ... .bdddddddbddeddddbdbdbebd",
"dbddbddddbdddbddddbddbdb..     oo  ... .dbdddbddddbddbdbabdbbbad",
"dedbdddbdddbddddddebddbd..    o o .... .dddbddddddebddbdbbbebddd",
"edddbdedddddbdddbddddbdd...      .... ...dddbdddbddddbddaeddddbd",
"addbdddadbdbddbbdaadddbd. ..    .... ....bdbddbbdaadddbdddddddae",
"dbdbedddbdbedddddbdedbdb.   .  ..    .....bedddddbdedbdbebdddbbd",
"ddbaddbedbddddddddddbdb...  .  ..   ......ddddddddddbdbabbdaeddd",
"ddddddbdddeddbdddbdadd.. .. . ...  ........ddbdddbdadddddeddbded",
"dddebbdddbdddddebddddb. . . . ...  ........ddddebddddbedbddddbdd",
"ddaabdddbdbdddbddbddd.. .  .. ....       ...ddbddbddddbaddddbdba",
"eddbdbebdbddebdbddda. ...   .........   .....bdbdddadbdddddbdddd",
"ddbdbdddaddbbdaddddd.....   ...........  ....dadddddbbbddebabddd",
"dddbdddbdddbbbdeaddb....OOO .....OO.. .. ... bdeaddbebdddddbddda",
"adbebdddadddbdddddbd.  O++  .....OO    .....bdddddbdbbddadbbdebd",
"dbebddddeddbebaddadb  OXX   ...OO+++OX .... ebaddadbdddddbdbddad",
"bdddddddddbbbbdddddb  ++X    ....+++OX ...  bbdddddbddbedbdddddd",
"ddedddaddbabbdebddddd      . ...O++O   ...  bdebdddddddddddddddb",
"dbadddedbdeddddbdbddda       ....      ..   dddbdbdddadddadddbbd",
"ddddbbdbddddddddbddeddb      . .  .   ...  dddddbddeddbddbebdded",
"eddeddddddaddddadbdadbe      . .  ..  ...  ddddadbdadbebddbdbdbd",
"ddbdadddddedddbddeddbddd     . . . .  . .  dddbddeddbddddbbddddd",
"dadeadddabdddbdedbebddbdd    . . . .  .    ddbdedbebddbdddbbbddd",
"bdbdebdebdddbdddddbbbddda  .   . .        ddbdddddbbbdddaddbdedd",
"adbddddbbddbddbdbbdbdbddd  .   . .       ddbddbdbbdbdbdddabddadb",
"dddeddbdbdbdddddbdbeddddd...   . .       dbdddddbdbedddddbaebddd",
"adbdabdbbbddeddedadddbdedd..   . . .   .bbddeddedadddbdeddddbbdd",
"ddddbdbbeddbdabbddddddddbd.b . . . d  . eddbdabbddddddddbddbdddb",
"dddbbedbbdddddddbddeddddbdbd . . . b. .bbdddddddbddeddddbdbdbebd",
"dbddbddddbdddbddddbddbdbabdb.. . .ddb .ddbdddbddddbddbdbabdbbbad",
"dedbdddbdddbddddddebddbdbbbeb. . .dbd.dbdddbddddddebddbdbbbebddd",
"edddbdedddddbdddbddddbddaeddd.b. dddbdedddddbdddbddddbddaeddddbd",
"addbdddadbdbddbbdaadddbddddddda. ddbdddadbdbddbbdaadddbdddddddae",
"dbdbedddbdbedddddbdedbdbebdddbb..bdbadddbdbedddddbdedbdbebdddbbd",
"ddbaddbedbddddddddddbdbabbdaeddd.dbaddbedbddddddddddbdbabbdaeddd",
"ddddddbdddeddbdddbdadddddeddbdedddddddbdddeddbdddbdadddddeddbded",
"dddebbdddbdddddebddddbedbddddbdddddebbdddbdddddebddddbedbddddbdd",
"ddaabdddbdbdddbddbddddbaddddbdbaddaabdddbdbdddbddbddddbaddddbdba",
"eddbdbebdbddebdbdddadbdddddbddddeddbdbebdbddebdbdddadbdddddbdddd",
"ddbdbdddaddbbdadddddbbbddebabdddddbdbdddaddbbdadddddbbbddebabddd",
"dddbdddbdddbbbdeaddbebdddddbdddadddbdddbdddbbbdeaddbebdddddbddda"
};
