/* XPM */
static char *result[] = {
/* columns rows colors chars-per-pixel */
"64 64 11 1 ",
"  c #181220",
". c #251E30",
"X c #551C1F",
"o c #00627C",
"O c #854024",
"+ c #CD9152",
"@ c #00AED7",
"a c #3C2312",
"b c #482B16",
"d c #54301B",
"e c #52371E",
/* pixels */
"edddbdedddddbdddbddddbddaeddddbdedddbdedddddbdddbddddbddaeddddbd",
"addbdddadbdbddbbdaadddbdddddddaeaddbdddadbdbddbbdaadddbdddddddae",
"dbdbedddbdbedddddbdedbdbebdddbbddbdbadddbdbedddddbdedbdbebdddbbd",
"ddbaddbedbddddddddddbdbabbdaedddddbaddbedbddddddddddbdbabbdaeddd",
"ddddddbdddeddbdddbdadddddeddbdedddddddbdddeddbdddbdadddddeddbded",
"dddebbdddbdddddebddddbedbddddbdddddebbdddbdddddebddddbedbddddbdd",
"ddaabdddbdbdddbddbddddbaddddbdbaddaabdddbdbdddbddbddddbaddddbdba",
"eddbdbebdbddebdbdddadbdddddbddddeddbdbebdbddebdbdddadbdddddbdddd",
"ddbdbdddaddbbdadddddbbbddebabdddddbdbdddaddbbdadddddbbbddebabddd",
"dddbdddbdddbbbdeaddbebdddddbdddadddbdddbdddbbbdeaddbebdddddbddda",
"adbebdddadddbdddddbdbbddadbbdebdadbebdddadddbdddddbdbbddadbbdebd",
"dbebddddeddbebaddadbdddddbdbddaddbebddddeddbebaddadbdddddbdbddad",
"bdddddddddbbbbdddddbddbedbddddddbdddddddddbbbbdddddbddbedbdddddd",
"ddedddaddbabbdebdddddddddddddddbddedddaddbabbdebdddddddddddddddb",
"dbadddedbdeddddbdbdddadddadddbbddbadddedbdeddddbdbdddadddadddbbd",
"ddddbbdbddddddddbddeddbddbebd....dddbbdbddddddddbddeddbddbebdded",
"eddeddddddaddddadbdadbebddb.......deddddddaddddadbdadbebddbdbdbd",
"ddbdadddddedddbddeddbddddb.    ....dadddddedddbddeddbddddbbddddd",
"dadeadddabdddbdedbebddbdd.      ....adddabdddbdedbebddbdddbbbddd",
"bdbdebdebdddbdddddbbbddda.      ....ebdebdddbdddddbbbdddaddbdedd",
"adbddddbbddbddbdbbdbdbddd.  ooo  .  .ddbbddbddbdbbdbdbdddabddadb",
"dddeddbdbdbdddddbdbedddd.. ooooo ..  dbdbdbdddddbdbedddddbaebddd",
"adbdabdbbbddeddedadddbde. oo@@oo  .   dbbbddeddedadddbdeddddbbdd",
"ddddbdbbeddbdabbdddddddd.    o  o ..  bbeddbdabbddddddddbddbdddb",
"dddbbedbbdddddddbddedddd. o  o  o ... dbbdddddddbddeddddbdbdbebd",
"dbddbddddbdddbddddbddbd..  o oo@o ... .ddbdddbddddbddbdbabdbbbad",
"dedbdddbdddbddddddebddb..  ooooo  ... .bdddbddddddebddbdbbbebddd",
"edddbdedddddbdddbddddbd..  o o o .... .dddddbdddbddddbddaeddddbd",
"addbdddadbdbddbbdaadddb...      .... ...dbdbddbbdaadddbdddddddae",
"dbdbedddbdbedddddbdedbd. ..    .... ....bdbedddddbdedbdbebdddbbd",
"ddbaddbedbddddddddddbdb.   .  ..    .....bddddddddddbdbabbdaeddd",
"ddddddbdddeddbdddbdadd...  .  ..   ......deddbdddbdadddddeddbded",
"dddebbdddbdddddebdddd.. .. . ...  ........dddddebddddbedbddddbdd",
"ddaabdddbdbdddbddbddd. . . . ...  ........bdddbddbddddbaddddbdba",
"eddbdbebdbddebdbddda.. .  .. ....       ...debdbdddadbdddddbdddd",
"ddbdbdddaddbbdadddd. ...   .........   .....bdadddddbbbddebabddd",
"dddbdddbdddbbbdeadd....OOO ...........  ....bbdeaddbebdddddbddda",
"adbebdddadddbdddddb.  O++  .....OO    . ...  dddddbdbbddadbbdebd",
"dbebddddeddbebaddad. OXX   ...OO+++OX ..... ebaddadbdddddbdbddad",
"bdddddddddbbbbddddd  ++X   .....+++OX .... bbbdddddbddbedbdddddd",
"ddedddaddbabbdebddd         ...O++O   ...  bbdebdddddddddddddddb",
"dbadddedbdeddddbdbdd      . ....      ...  ddddbdbdddadddadddbbd",
"ddddbbdbddddddddbdded       ...  .   ...   dddddbddeddbddbebdded",
"eddeddddddaddddadbdad       . .  ..  ...    dddadbdadbebddbdbdbd",
"ddbdadddddedddbddedd        . .  ..  ...  edddbddeddbddddbbddddd",
"dadeadddabdddbdedbeb  b     . . . .  . .  dddbdedbebddbdddbbbddd",
"bdbdebdebdddbdddddbbbddd    . . . .  . e   dbdddddbbbdddaddbdedd",
"adbddddbbddbddbdbbdbdbd   .   . .      b . bddbdbbdbdbdddabddadb",
"dddeddbdbdbdddddbdbeddd   .   . .      db.  ddddbdbedddddbaebddd",
"adbdabdbbbddeddedadddb  .d.   . .      bbbddeddedadddbdeddddbbdd",
"ddddbdbbeddbdabbddddddddbd.   . . .  d.beddbdabbddddddddbddbdddb",
"dddbbedbbdddddddbddeddddbdb . . . d  e bbdddddddbddeddddbdbdbebd",
"dbddbddddbdddbddddbddbdbabd . . . d. ddddbdddbddddbddbdbabdbbbad",
"dedbdddbdddbddddddebddbdbbb.. . .edb ddbdddbddddddebddbdbbbebddd",
"edddbdedddddbdddbddddbddaed d . .dddbdedddddbdddbddddbddaeddddbd",
"addbdddadbdbddbbdaadddbddddddd. addbdddadbdbddbbdaadddbdddddddae",
"dbdbedddbdbedddddbdedbdbebdddbb dbdbadddbdbedddddbdedbdbebdddbbd",
"ddbaddbedbddddddddddbdbabbdaedddddbaddbedbddddddddddbdbabbdaeddd",
"ddddddbdddeddbdddbdadddddeddbdedddddddbdddeddbdddbdadddddeddbded",
"dddebbdddbdddddebddddbedbddddbdddddebbdddbdddddebddddbedbddddbdd",
"ddaabdddbdbdddbddbddddbaddddbdbaddaabdddbdbdddbddbddddbaddddbdba",
"eddbdbebdbddebdbdddadbdddddbddddeddbdbebdbddebdbdddadbdddddbdddd",
"ddbdbdddaddbbdadddddbbbddebabdddddbdbdddaddbbdadddddbbbddebabddd",
"dddbdddbdddbbbdeaddbebdddddbdddadddbdddbdddbbbdeaddbebdddddbddda"
};
