/* XPM */
static char *result[] = {
/* columns rows colors chars-per-pixel */
"64 64 12 1 ",
"  c #181220",
". c #251E30",
"X c #551C1F",
"o c #00627C",
"O c #854024",
"+ c #CD9152",
"@ c #00AED7",
"# c #60DDF3",
"a c #3C2312",
"b c #482B16",
"d c #54301B",
"e c #52371E",
/* pixels */
"edddbdedddddbdddbddddbddaeddddbdedddbdedddddbdddbddddbddaeddddbd",
"addbdddadbdbddbbdaadddbdddddddaeaddbdddadbdbddbbdaadddbdddddddae",
"dbdbedddbdbedddddbdedbdbebdddbbddbdbadddbdbedddddbdedbdbebdddbbd",
"ddbaddbedbddddddddddbdbabbdaedddddbaddbedbddddddddddbdbabbdaeddd",
"ddddddbdddeddbdddbdadddddeddbdedddddddbdddeddbdddbdadddddeddbded",
"dddebbdddbdddddebddddbedbddddbdddddebbdddbdddddebddddbedbddddbdd",
"ddaabdddbdbdddbddbddddbaddddbdbaddaabdddbdbdddbddbddddbaddddbdba",
"eddbdbebdbddebdbdddadbdddddbddddeddbdbebdbddebdbdddadbdddddbdddd",
"ddbdbdddaddbbdadddddbbbddebabdddddbdbdddaddbbdadddddbbbddebabddd",
"dddbdddbdddbbbdeaddbebdddddbdddadddbdddbdddbbbdeaddbebdddddbddda",
"adbebdddadddbdddddbdbbddadbbdebdadbebdddadddbdddddbdbbddadbbdebd",
"dbebddddeddbebaddadbdddddbdbddaddbebddddeddbebaddadbdddddbdbddad",
"bdddddddddbbbbdddddbddbedbddddddbdddddddddbbbbdddddbddbedbdddddd",
"ddedddaddbabbdebdddddddddddddddbddedddaddbabbdebdddddddddddddddb",
"dbadddedbdeddddbdbdddadddadddbbddbadddedbdeddddbdbdddadddadddbbd",
"ddddbbdbddddddddbddeddbddbebddedddddbbdbddddddddbddeddbddbebdded",
"eddeddddddaddddadbdadbebddbdb.....deddddddaddddadbdadbebddbdbdbd",
"ddbdadddddedddbddeddbddddbb........dadddddedddbddeddbddddbbddddd",
"dadeadddabdddbdedbebddbddd..    ....adddabdddbdedbebddbdddbbbddd",
"bdbdebdebdddbdddddbbbdddad..    .....bdebdddbdddddbbbdddaddbdedd",
"adbddddbbddbddbdbbdbdbddda.  ooo ..  ddbbddbddbdbbdbdbdddabddadb",
"dddeddbdbdbdddddbdbedddddb. o@@@ ..   bdbdbdddddbdbedddddbaebddd",
"adbdabdbbbddeddedadddbded..o@###@..    bbbddeddedadddbdeddddbbdd",
"ddddbdbbeddbdabbddddddddb..o  @  @..   beddbdabbddddddddbddbdddb",
"dddbbedbbdddddddbddeddddb. o  o  @ .   bbdddddddbddeddddbdbdbebd",
"dbddbddddbdddbddddbddbdba. o@@ @#o ..  .dbdddbddddbddbdbabdbbbad",
"dedbdddbdddbddddddebddbdb.  o@ @@  ..  .dddbddddddebddbdbbbebddd",
"edddbdedddddbdddbddddbdd..  o @ @ ...  .ddddbdddbddddbddaeddddbd",
"addbdddadbdbddbbdaadddbd...       ... ...bdbddbbdaadddbdddddddae",
"dbdbedddbdbedddddbdedbdb. ..     ... ....dbedddddbdedbdbebdddbbd",
"ddbaddbedbddddddddddbdba.   .  ....  .....ddddddddddbdbabbdaeddd",
"ddddddbdddeddbdddbdaddd...  .  ..   ......eddbdddbdadddddeddbded",
"dddebbdddbdddddebddddb.. .. . ...  ........ddddebddddbedbddddbdd",
"ddaabdddbdbdddbddbdddd.   . . ...  ..    ..dddbddbddddbaddddbdba",
"eddbdbebdbddebdbdddad..    .. ...     ......ebdbdddadbdddddbdddd",
"ddbdbdddaddbbdadddddb. ...  ....  ...   .....dadddddbbbddebabddd",
"dddbdddbdddbbbdeaddbe. ........ ..... .  ....bdeaddbebdddddbddda",
"adbebdddadddbdddddbdb....OO ... ........ ... dddddbdbbddadbbdebd",
"dbebddddeddbebaddadbd. O++  ....OO    ......ebaddadbdddddbdbddad",
"bdddddddddbbbbdddddbdd OXX  ...O+++OX ..... bbdddddbddbedbdddddd",
"ddedddaddbabbdebddddddd ++   .O++++OX ....  bdebdddddddddddddddb",
"dbadddedbdeddddbdbdddad    . ...++O   .... ddddbdbdddadddadddbbd",
"ddddbbdbddddddddbddeddb      ...      ...  dddddbddeddbddbebdded",
"eddeddddddaddddadbdadbe      . .  ..  ...  ddddadbdadbebddbdbdbd",
"ddbdadddddedddbddeddbdd      . .  ..  ...  dddbddeddbddddbbddddd",
"dadeadddabdddbdedbebddbd     . . . .  . .  ddbdedbebddbdddbbbddd",
"bdbdebdebdddbdddddbbbddda    . . . .  . b  dbdddddbbbdddaddbdedd",
"adbddddbbddbddbdbbdbdbddd  .   . . .    b  bddbdbbdbdbdddabddadb",
"dddeddbdbdbdddddbdbeddddd  .   . . .    b  dddddbdbedddddbaebddd",
"adbdabdbbbddeddedadddbded  .   . . .    b ddeddedadddbdeddddbbdd",
"ddddbdbbeddbdabbddddddddb. .   . . .  b e dbdabbddddddddbddbdddb",
"dddbbedbbdddddddbddeddddbd d . . . b  dbb ddddddbddeddddbdbdbebd",
"dbddbddddbdddbddddbddbdbabdb . . . d. dddbdddbddddbddbdbabdbbbad",
"dedbdddbdddbddddddebddbdbbbe.. . .db  dbdddbddddddebddbdbbbebddd",
"edddbdedddddbdddbddddbddaeddd. . .dd .edddddbdddbddddbddaeddddbd",
"addbdddadbdbddbbdaadddbdddddd.a. ddb ddadbdbddbbdaadddbdddddddae",
"dbdbedddbdbedddddbdedbdbebdddbbd bdbadddbdbedddddbdedbdbebdddbbd",
"ddbaddbedbddddddddddbdbabbdaeddd.dbaddbedbddddddddddbdbabbdaeddd",
"ddddddbdddeddbdddbdadddddeddbdedddddddbdddeddbdddbdadddddeddbded",
"dddebbdddbdddddebddddbedbddddbdddddebbdddbdddddebddddbedbddddbdd",
"ddaabdddbdbdddbddbddddbaddddbdbaddaabdddbdbdddbddbddddbaddddbdba",
"eddbdbebdbddebdbdddadbdddddbddddeddbdbebdbddebdbdddadbdddddbdddd",
"ddbdbdddaddbbdadddddbbbddebabdddddbdbdddaddbbdadddddbbbddebabddd",
"dddbdddbdddbbbdeaddbebdddddbdddadddbdddbdddbbbdeaddbebdddddbddda"
};
