/* XPM */
static char *result[] = {
/* columns rows colors chars-per-pixel */
"64 64 11 1 ",
"  c #181220",
". c #251E30",
"X c #551C1F",
"o c #00627C",
"O c #854024",
"+ c #CD9152",
"@ c #00AED7",
"a c #3C2312",
"b c #482B16",
"d c #54301B",
"e c #52371E",
/* pixels */
"edddbdedddddbdddbddddbddaeddddbdedddbdedddddbdddbddddbddaeddddbd",
"addbdddadbdbddbbdaadddbdddddddaeaddbdddadbdbddbbdaadddbdddddddae",
"dbdbedddbdbedddddbdedbdbebdddbbddbdbadddbdbedddddbdedbdbebdddbbd",
"ddbaddbedbddddddddddbdbabbdaedddddbaddbedbddddddddddbdbabbdaeddd",
"ddddddbdddeddbdddbdadddddeddbdedddddddbdddeddbdddbdadddddeddbded",
"dddebbdddbdddddebddddbedbddddbdddddebbdddbdddddebddddbedbddddbdd",
"ddaabdddbdbdddbddbddddbaddddbdbaddaabdddbdbdddbddbddddbaddddbdba",
"eddbdbebdbddebdbdddadbdddddbddddeddbdbebdbddebdbdddadbdddddbdddd",
"ddbdbdddaddbbdadddddbbbddebabdddddbdbdddaddbbdadddddbbbddebabddd",
"dddbdddbdddbbbdeaddbebdddddbdddadddbdddbdddbbbdeaddbebdddddbddda",
"adbebdddadddbdddddbdbbddadbbdebdadbebdddadddbdddddbdbbddadbbdebd",
"dbebddddeddbebaddadbdddddbdbddaddbebddddeddbebaddadbdddddbdbddad",
"bdddddddddbbbbdddddbddbedbddddddbdddddddddbbbbdddddbddbedbdddddd",
"ddedddaddbabbdebdddddddddddddddbddedddaddbabbdebdddddddddddddddb",
"dbadddedbdeddddbdbdddadddaddd....badddedbdeddddbdbdddadddadddbbd",
"ddddbbdbddddddddbddeddbddbe.......ddbbdbddddddddbddeddbddbebdded",
"eddeddddddaddddadbdadbebdd.    ....eddddddaddddadbdadbebddbdbdbd",
"ddbdadddddedddbddeddbdddd.      ....adddddedddbddeddbddddbbddddd",
"dadeadddabdddbdedbebddbdd.      ....adddabdddbdedbebddbdddbbbddd",
"bdbdebdebdddbdddddbbbddda.       .  .bdebdddbdddddbbbdddaddbdedd",
"adbddddbbddbddbdbbdbdbdd..       ..  ddbbddbddbdbbdbdbdddabddadb",
"dddeddbdbdbdddddbdbedddd.         .   bdbdbdddddbdbedddddbaebddd",
"adbdabdbbbddeddedadddbde.  o  @   ..  dbbbddeddedadddbdeddddbbdd",
"ddddbdbbeddbdabbdddddddd.         ... bbeddbdabbddddddddbddbdddb",
"dddbbedbbdddddddbddeddd..         ... .bbdddddddbddeddddbdbdbebd",
"dbddbddddbdddbddddbddbd..         ... .ddbdddbddddbddbdbabdbbbad",
"dedbdddbdddbddddddebddb..        .... .bdddbddddddebddbdbbbebddd",
"edddbdedddddbdddbddddbd...      .... ...ddddbdddbddddbddaeddddbd",
"addbdddadbdbddbbdaadddb. ..    .... ....dbdbddbbdaadddbdddddddae",
"dbdbedddbdbedddddbdedbd.   .  ..    .....dbedddddbdedbdbebdddbbd",
"ddbaddbedbddddddddddbd...  .  ..   ......bddddddddddbdbabbdaeddd",
"ddddddbdddeddbdddbdad.. .. . ...  ........eddbdddbdadddddeddbded",
"dddebbdddbdddddebdddd. . . . ...  ........dddddebddddbedbddddbdd",
"ddaabdddbdbdddbddbdd.. .  .. ....       ...dddbddbddddbaddddbdba",
"eddbdbebdbddebdbddd. ...   .........   .....ebdbdddadbdddddbdddd",
"ddbdbdddaddbbdadddd....OOO ...........  ....bdadddddbbbddebabddd",
"dddbdddbdddbbbdeadd.  O++  .....OO    . ... bbdeaddbebdddddbddda",
"adbebdddadddbdddddb. OXX   ...OO+++OX .....dbdddddbdbbddadbbdebd",
"dbebddddeddbebaddad  ++X   .....+++OX .... bebaddadbdddddbdbddad",
"bdddddddddbbbbddddd         ...O++O   ...  bbbdddddbddbedbdddddd",
"ddedddaddbabbdebdddd      . ....      ...  bbdebdddddddddddddddb",
"dbadddedbdeddddbdbddd       ...  .   ...   ddddbdbdddadddadddbbd",
"ddddbbdbddddddddbddedd      . .  ..  ...  ddddddbddeddbddbebdded",
"eddeddddddaddddadbdadb      . .  ..  ...  addddadbdadbebddbdbdbd",
"ddbdadddddedddbddeddbdd     . . . .  . .  edddbddeddbddddbbddddd",
"dadeadddabdddbdedbebddbd    . . . .  .    dddbdedbebddbdddbbbddd",
"bdbdebdebdddbdddddbbbddd  .   . .        dddbdddddbbbdddaddbdedd",
"adbddddbbddbddbdbbdbdbdd  .   . .        ddbddbdbbdbdbdddabddadb",
"dddeddbdbdbdddddbdbedddd b.   . .      d dbdddddbdbedddddbaebddd",
"adbdabdbbbddeddedadddbdedd.   . . .  b.b bddeddedadddbdeddddbbdd",
"ddddbdbbeddbdabbddddddddbddb. . . d  d beddbdabbddddddddbddbdddb",
"dddbbedbbdddddddbddeddddbdbd. . . d. edbbdddddddbddeddddbdbdbebd",
"dbddbddddbdddbddddbddbdbabdbb . .bd  ddddbdddbddddbddbdbabdbbbad",
"dedbdddbdddbddddddebddbdbbbeb . .edbdddbdddbddddddebddbdbbbebddd",
"edddbdedddddbdddbddddbddaedddd.  dddbdedddddbdddbddddbddaeddddbd",
"addbdddadbdbddbbdaadddbddddddd  addbdddadbdbddbbdaadddbdddddddae",
"dbdbedddbdbedddddbdedbdbebdddbb dbdbadddbdbedddddbdedbdbebdddbbd",
"ddbaddbedbddddddddddbdbabbdaedddddbaddbedbddddddddddbdbabbdaeddd",
"ddddddbdddeddbdddbdadddddeddbdedddddddbdddeddbdddbdadddddeddbded",
"dddebbdddbdddddebddddbedbddddbdddddebbdddbdddddebddddbedbddddbdd",
"ddaabdddbdbdddbddbddddbaddddbdbaddaabdddbdbdddbddbddddbaddddbdba",
"eddbdbebdbddebdbdddadbdddddbddddeddbdbebdbddebdbdddadbdddddbdddd",
"ddbdbdddaddbbdadddddbbbddebabdddddbdbdddaddbbdadddddbbbddebabddd",
"dddbdddbdddbbbdeaddbebdddddbdddadddbdddbdddbbbdeaddbebdddddbddda"
};
