/* XPM */
static char *result[] = {
/* columns rows colors chars-per-pixel */
"64 64 11 1 ",
"  c #300F0A",
". c #550F0A",
"X c #A02018",
"o c #CF4521",
"O c #DF7E27",
"+ c #AD5B40",
"@ c #F0D71E",
"# c #E3936B",
"$ c #F5C187",
"% c #F5DDA6",
"& c None",
/* pixels */
"&&&&&&&&&&&&&&&&&&&&&&&&&&&&&&&&&&&&&&&&&&&&&&&&&&&&&&&&&&&&&&&&",
"&&&&&&&&&&&&&&&&&&&&&&&&&&&&&&&&&&&&&&&&&&&&&&&&&&&&&&&&&&&&&&&&",
"&&&&&&&&&&&&&&&&&&&&&&&&&&&&&&&&&&&&&&&&&&&&&&&&&&&&&&&&&&&&&&&&",
"&&&&&&&&&&&&&&&&&&&&&&&&&&&&&&&&&&&&&&&&&&&&&&&&&&&&&&&&&&&&&&&&",
"&&&&&&&&&&&&&&&&&&&&&&&&&&&&&&&&&&&&&&&&&&&&&&&&&&&&&&&&&&&&&&&&",
"&&&&&&&&&&&&&&&&&&&&&&&&&&&&&&&&&&&&&&&&&&&&&&&&&&&&&&&&&&&&&&&&",
"&&&&&&&&&&&&&&&&&&&&&&&&&&&&&&&&&&&&&&&&&&&&&&&&&&&&&&&&&&&&&&&&",
"&&&&&&&&&&&&&&&&&&&&&&&&&&&&&&&&&&&&&&&&&&&&&&&&&&&&&&&&&&&&&&&&",
"&&&&&&&&&&&&&&&&&&&&&&&&&&&&&&&&&&&&&&&&&&&&&&&&&&&&&&&&&&&&&&&&",
"&&&&&&&&&&&&&&&&&&&&&&&&&&&&&&&&&&&&&&&&&&&&&&&&&&&&&&&&&&&&&&&&",
"&&&&&&&&&&&&&&&&&&&&&&&&&&&&&&&&&&&&&&&&&&&&&&&&&&&&&&&&&&&&&&&&",
"&&&&&&&&&&&&&&&&&&&&&&&&&&&&&&&&&&&&&&&&&&&&&&&&&&&&&&&&&&&&&&&&",
"&&&&&&&&&&&&&&&&&&&&&&&&&&&&&&&&&&&&&&&&&&&&&&&&&&&&&&&&&&&&&&&&",
"&&&&&&&&&&&&&&&&&&&&&&&&&&&&&&&&&&&&&&&&&&&&&&&&&&&&&&&&&&&&&&&&",
"&&&&&&&&&&&&&&&&&&&&&&&&&&&&&&&&&&&&&&&&&&&&&&&&&&&&&&&&&&&&&&&&",
"&&&&&&&&&&&&&&&&&&&&&&&&&&&&&&&&&&&&&&&&&&&&&&&&&&&&&&&&&&&&&&&&",
"&&&&&&&&&&&&&&&&&&&&&&&&&&&&&&&&&&&&&&&&&&&&&&&&&&&&&&&&&&&&&&&&",
"&&&&&&&&&&&&&&&&&&&&&&&&&&&&&&&&&&&&&&&&&&&&&&&&&&&&&&&&&&&&&&&&",
"&&&&&&&&&&&&&&&&&&&&&&&&&&&&&&&&&&&&&&&&&&&&&&&&&&&&&&&&&&&&&&&&",
"&&&&&&&&&&&&&&&&&&&&&&&&&&&&&&&&&&&&&&&&&&&&&&    &&&&&&&&&&&&&&",
"&&&&&&&&&&&&&&&&&&&&&&&&&&&&&&&&&&&&&&&&&&&&&       &&&&&&&&&&&&",
"&&&&&&&&&&&&&&&&&&&&&&&&&&&&&&&&&&&&&&&&&&&&         &&&&&&&&&&&",
"&&&&&&&&&&&&&&&&&&&&&&&&&&&&&&&&&&&&&&&&&&&&        &&&&&&&&&&&&",
"&&&&&&&&&&&&&&&&&&&&&&&&&&&&&&&&&&&&&&&&&&&&  ####&&&&&&&&&&&&&&",
"&&&&&&&&&&&&&&&&&&&&&&&&&&&&&&&&&&&&&&&&&&&&# ++#+&&&&&&&&&&&&&&",
"&&&&&&&&&&&&&&&&&&&&&&&&&&&&&&&&&&&&&&&&&&&&# %%%%&&&&&&&&&&&&&&",
"&&&&&&&&&&&&&&&&&&&&&&&&&&&&&&&&&&&&&&&Xooo&&#%   &&&&&&&&&&&&&&",
"&&&&&&&&&&&&&&&&&&&&&&&&&&&&&&&&&&&&&&Xooooo&#+   OXXooooo&&&&&&",
"&&&&&&&&&&&&&&&&&&&&&&&&&&&&&&&&&&&&&XooooXXO#++++OOXoooooo&&&&&",
"&&&&&&&&&&&&&&&&&&&&&&&&&&&&&&&&&&&&&OXXXOO@@OOO@@OXooooXXXX&&&&",
"&&&&&&&&&&&&&&&&&&&&&&&&&&&&&&&&&&&&&.@@OXXX@@@@XX@XooXX@OOX&&&&",
"&&&&&&&&&&&&&&&&&&&&&&&&&&&&&&&&&&&&&..  XooXXXXX@XXXX@@   O&&&&",
"&&&&&&&&&&&&&&&&&&&&&&&&&&&&&&&&&&&&&+.. XooooooXOOO@@     &&&&&",
"&&&&&&&&&&&&&&&&&&&&&&&&&&&&&&&&&&&&&#+++XooooooX..    .++.&&&&&",
"&&&&&&&&&&&&&&&&&&&&&&&&&&&&&&&&&&&&&#%%#XXooooXXX. .+++##&&&&&&",
"&&&&&&&&&&&&&&&&&&&&&&&&&&&&&&&&&&&&&#%%&.XXXXXX....%%%##&&&&&&&",
"&&&&&&&&&&&&&&&&&&&&&&&&&&&&&&&&&&&&&#%%&..........%%%%#&&&&&&&&",
"&&&&&&&&&&&&&&&&&&&&&&&&&&&&&&&&&&&&& ..&&XXXXXX....%%#&&&&&&&&&",
"&&&&&&&&&&&&&&&&&&&&&&&&&&&&&&&&&&&&& ..&&Xoooo.... ##&&&&&&&&&&",
"&&&&&&&&&&&&&&&&&&&&&&&&&&&&&&&&&&&&& ...&&Xo....  XX&&&&&&&&&&&",
"&&&&&&&&&&&&&&&&&&&&&&&&&&&&&&&&&&..&& ..OO%%..  XXXX&&&&&&&&&&&",
"&&&&&&&&&&&&&&&&&&&&&&&&&&&&&&&&&&...& ###X%%  XXXX@@O&&&&&&&&&&",
"&&&&&&&&&&&&&&&&&&&&&&&&&&&&&&&&&&& ..&%%%.%#OOOOOO.XXX&&&&&&&&&",
"&&&&&&&&&&&&&&&&&&&&&&&&&&&&&&&&&   ...+##.#.OOXX@ .XXXo&&&&&&&&",
"&&&&&&&&&&&&&&&&&&&&&&&&&&&&&&&     o...++XX. OXX@ XXXooo&&&&&&&",
"&&&&&&&&&&&&&&&&&&&&&&&&&&&&&     o   ..XXXX. @XX@ Xoooooo&&&&&&",
"&&&&&&&&&&&&&&&&&&&&&&&&&&&     o     ...XXX. @XX@ Xoooooo&&&&&&",
"&&&&&&&&&&&&&&&&&&&&&&&&&             $...XXX @XX@ OXXXXXX&&&&&&",
"&&&&&&&&&&&&&&&&&&&&&&&             $$OO..XXX @XXO  OO@@@O&&&&&&",
"&&&&&&&&&&&&&&&&&&&&&             $$&&  OOO@@ @XXO       &&&&&&&",
"&&&&&&&&&&&&&&&&&&&             $$&&& .XXX   &OXXO&     ..&&&&&&",
"&&&&&&&&&&&&&&&&&             $$&&&&& ..XX  &&OXXO&&   .XXX&&&&&",
"&&&&&&&&&&&&&&&             $$&&&&&&&  ... &&&OXXO&&&& ..XX&&&&&",
"&&&&&&&&&&&&&             $$&&&&&&&&&     &&&&OXX@&&&&  ...&&&&&",
"&&&&&&&&&&&             $$&&&&&&&&&&& ...&&&&&&O@&&&&& .   &&&&&",
"&&&&&&&&&             $$&&&&&&&&&&&&& ...&&&&&&&&&&&&& ...&&&&&&",
"&&&&&&&             $$&&&&&&&&&&&&&& ...&&&&&&&&&&&&&&& ..&&&&&&",
"&&&&&             $$&&&&&&&&&&&&&&&& ..&&&&&&&&&&&&&&&& ..&&&&&&",
"&&&             $$&&&&&&&&&&&&&&&&&& ..&&&&&&&&&&&&&&&& ..&&&&&&",
"&&$           $$&&&&&&&&&&&&&&&&&&&& ..&&&&&&&&&&&&&&&& ...&&&&&",
"&&&$$$     $$$&&&&&&&&&&&&&&&&&&&&& ...&&&&&&&&&&&&&&&&& ...&&&&",
"&&&&&&$$$$$&&&&&&&&&&&&&&&&&&&&&&&& .XXX&&&&&&&&&&&&&&&& .XXX&&&",
"&&&&&&&&&&&&&&&&&&&&&&&&&&&&&&&&&&&   ...&&&&&&&&&&&&&&&   ...&&",
"&&&&&&&&&&&&&&&&&&&&&&&&&&&&&&&&&&&&&&&&&&&&&&&&&&&&&&&&&&&&&&&&"
};
