/* XPM */
static char *result[] = {
/* columns rows colors chars-per-pixel */
"64 64 11 1 ",
"  c #300F0A",
". c #550F0A",
"X c #A02018",
"o c #CF4521",
"O c #DF7E27",
"+ c #AD5B40",
"@ c #F0D71E",
"# c #E3936B",
"$ c #F5C187",
"% c #F5DDA6",
"& c None",
/* pixels */
"&&&&&&&&&&&&&&&&&&&&&&&&&&&&&&&&&&&&&&&&&&&&&&&&&&&&&&&&&&&&&&&&",
"&&&&&&&&&&&&&&&&&&&&&&&&&&&&&&&&&&&&&&&&&&&&&&&&&&&&&&&&&&&&&&&&",
"&&&&&&&&&&&&&&&&&&&&&&&&&&&&&&&&&&&&&&&&&&&&&&&&&&&&&&&&&&&&&&&&",
"&&&&&&&&&&&&&&&&&&&&&&&&&&&&&&&&&&&&&&&&&&&&&&&&&&&&&&&&&&&&&&&&",
"&&&&&&&&&&&&&&&&&&&&&&&&&&&&&&&&&&&&&&&&&&&&&&&&&&&&&&&&&&&&&&&&",
"&&&&&&&&&&&&&&&&&&&&&&&&&&&&&&&&&&&&&&&&&&&&&&&&&&&&&&&&&&&&&&&&",
"&&&&&&&&&&&&&&&&&&&&&&&&&&&&&&&&&&&&&&&&&&&&&&&&&&&&&&&&&&&&&&&&",
"&&&&&&&&&&&&&&&&&&&&&&&&&&&&&&&&&&&&&&&&&&&&&&&&&&&&&&&&&&&&&&&&",
"&&&&&&&&&&&&&&&&&&&&&&&&&&&&&&&&&&&&&&&&&&&&&&&&&&&&&&&&&&&&&&&&",
"&&&&&&&&&&&&&&&&&&&&&&&&&&&&&&&&&&&&&&&&&&&&&&&&&&&&&&&&&&&&&&&&",
"&&&&&&&&&&&&&&&&&&&&&&&&&&&&&&&&&&&&&&&&&&&&&&&&&&&&&&&&&&&&&&&&",
"&&&&&&&&&&&&&&&&&&&&&&&&&&&&&&&&&&&&&&&&&&&&&&&&&&&&&&&&&&&&&&&&",
"&&&&&&&&&&&&&&&&&&&&&&&&&&&&&&&&&&&&&&&&&&&&&&&&&&&&&&&&&&&&&&&&",
"&&&&&&&&&&&&&&&&&&&&&&&&&&&&&&&&&&&&&&&&&&&&&&&&&&&&&&&&&&&&&&&&",
"&&&&&&&&&&&&&&&&&&&&&&&&&&&&&&&&&&&&&&&&&&&&&&&&&&&&&&&&&&&&&&&&",
"&&&&&&&&&&&&&&&&&&&&&&&&&&&&&&&&&&&&&&&&&&&&&&&&&&&&&&&&&&&&&&&&",
"&&&&&&&&&&&&&&&&&&&&&&&&&&&&&&&&&&&&&&&&&&&&&&&&&&&&&&&&&&&&&&&&",
"&&&&&&&&&&&&&&&&&&&&&&&&&&&&&&&&&&&&&&&&&&&&&&&&&&&&&&&&&&&&&&&&",
"&&&&&&&&&&&&&&&&&&&&&&&&&&&&&&&&&&&&&&&&&&&&&&&&&&&&&&&&&&&&&&&&",
"&&&&&&&&&&&&&&&&&&&&&&&&&&&&&&&&&&&&&&&&&&&&&&   &&&&&&&&&&&&&&&",
"&&&&&&&&&&&&&&&&&&&&&&&&&&&&&&&&&&&&&&&&&&&&      &&&&&&&&&&&&&&",
"&&&&&&&&&&&&&&&&&&&&&&&&&&&&&&&&&&&&&&&&&&&        &&&&&&&&&&&&&",
"&&&&&&&&&&&&&&&&&&&&&&&&&&&&&&&&&&&&&&&&&&&         &&&&&&&&&&&&",
"&&&&&&&&&&&&&&&&&&&&&&&&&&&&&&&&&&&&&&&&&&&  ####&&&&&&&&&&&&&&&",
"&&&&&&&&&&&&&&&&&&&&&&&&&&&&&&&&&&&&&&&&&&&# ++#+&&&&&&&&&&&&&&&",
"&&&&&&&&&&&&&&&&&&&&&&&&&&&&&&&&&&&&&&&&&&&# %%%%&&&&&&&&&&&&&&&",
"&&&&&&&&&&&&&&&&&&&&&&&&&&&&&&&&&&&&&&&&&&&&#%   &&&&&&&&&&&&&&&",
"&&&&&&&&&&&&&&&&&&&&&&&&&&&&&&&&&&&&&&Xooo&&#+   &XXooooo&&&&&&&",
"&&&&&&&&&&&&&&&&&&&&&&&&&&&&&&&&&&&&&XoooXXO#++++OXXoooooo&&&&&&",
"&&&&&&&&&&&&&&&&&&&&&&&&&&&&&&&&&&&&XXooXO@@OOO@@OOXooooXXX&&&&&",
"&&&&&&&&&&&&&&&&&&&&&&&&&&&&&&&&&&&&OXXXOXX@@@@XX@XooXXXXXX&&&&&",
"&&&&&&&&&&&&&&&&&&&&&&&&&&&&&&&&&&&&.@@OXooXXXXX@XXXX@@@OOX&&&&&",
"&&&&&&&&&&&&&&&&&&&&&&&&&&&&&&&&&&&&+.  XooooooXOOO@@     O&&&&&",
"&&&&&&&&&&&&&&&&&&&&&&&&&&&&&&&&&&&&#+++XooooooX..    .++.&&&&&&",
"&&&&&&&&&&&&&&&&&&&&&&&&&&&&&&&&&&&&#%%#XXooooXXX.  .++##&&&&&&&",
"&&&&&&&&&&&&&&&&&&&&&&&&&&&&&&&&&&&&#%%&.XXXXXX....%%%##&&&&&&&&",
"&&&&&&&&&&&&&&&&&&&&&&&&&&&&&&&&&&&&#%%&..........%%%%#&&&&&&&&&",
"&&&&&&&&&&&&&&&&&&&&&&&&&&&&&&&&&&&& ..&&XXXXXXXX##%%#&&&&&&&&&&",
"&&&&&&&&&&&&&&&&&&&&&&&&&&&&&&&&&&&& ..&&XooooX....##&&&&&&&&&&&",
"&&&&&&&&&&&&&&&&&&&&&&&&&&&&&&&&&&&& ...&&Xooo.... X&&&&&&&&&&&&",
"&&&&&&&&&&&&&&&&&&&&&&&&&&&&&&&&&..&& ..OO%%....  XX&&&&&&&&&&&&",
"&&&&&&&&&&&&&&&&&&&&&&&&&&&&&&&&&...& ..XX%%..  XX@@O&&&&&&&&&&&",
"&&&&&&&&&&&&&&&&&&&&&&&&&&&&&&&&&& ..&###.%#  OOOO....&&&&&&&&&&",
"&&&&&&&&&&&&&&&&&&&&&&&&&&&&&&&    ...%%%.#OOOXX@ .XXX&&&&&&&&&&",
"&&&&&&&&&&&&&&&&&&&&&&&&&&&&&      o...##XX. OXX@ .XXXo&&&&&&&&&",
"&&&&&&&&&&&&&&&&&&&&&&&&&&&    X o   ..++XX. @XX@ XXXooo&&&&&&&&",
"&&&&&&&&&&&&&&&&&&&&&&&&&      X     ...XXX. @XX@ Xoooooo&&&&&&&",
"&&&&&&&&&&&&&&&&&&&&&&&             $$...XXX @XX@ OXXXXXX&&&&&&&",
"&&&&&&&&&&&&&&&&&&&&&             $$&O...XXX @XXO  OO@@@O&&&&&&&",
"&&&&&&&&&&&&&&&&&&              $$&&&  OOO@@ @XXO       &&&&&&&&",
"&&&&&&&&&&&&&&&&              $$&&&& .XXX   &OXXO&     ..&&&&&&&",
"&&&&&&&&&&&&&&              $$&&&&&& ..XX  &&OXXO&&   .XXX&&&&&&",
"&&&&&&&&&&&&              $$&&&&&&&&  ... &&&OXXO&&&& ..XX&&&&&&",
"&&&&&&&&&&              $$&&&&&&&&&&     &&&&OXX@&&&&  ...&&&&&&",
"&&&&&&&&              $$&&&&&&&&&&&& ...&&&&&OO@@&&&& .   &&&&&&",
"&&&&&&              $$&&&&&&&&&&&&&& ...&&&&&&&&&&&&& ...&&&&&&&",
"&&&&             $$$&&&&&&&&&&&&&&& ...&&&&&&&&&&&&&&& ..&&&&&&&",
"&&             $$&&&&&&&&&&&&&&&&&& ..&&&&&&&&&&&&&&&& ..&&&&&&&",
"&$           $$&&&&&&&&&&&&&&&&&&&& ..&&&&&&&&&&&&&&&& ..&&&&&&&",
"&&$$$     $$$&&&&&&&&&&&&&&&&&&&&&& ..&&&&&&&&&&&&&&&& ...&&&&&&",
"&&&&&$$$$$&&&&&&&&&&&&&&&&&&&&&&&& ...&&&&&&&&&&&&&&&&& ...&&&&&",
"&&&&&&&&&&&&&&&&&&&&&&&&&&&&&&&&&& .XXX&&&&&&&&&&&&&&&& .XXX&&&&",
"&&&&&&&&&&&&&&&&&&&&&&&&&&&&&&&&&&   ...&&&&&&&&&&&&&&&   ...&&&",
"&&&&&&&&&&&&&&&&&&&&&&&&&&&&&&&&&&&&&&&&&&&&&&&&&&&&&&&&&&&&&&&&"
};
