/* XPM */
static char *result[] = {
/* columns rows colors chars-per-pixel */
"64 64 8 1 ",
"  c #570404",
". c #710B0B",
"X c #9A1818",
"o c #8E5C1D",
"O c #C5750F",
"+ c #DEA700",
"@ c #F5CE58",
"# c None",
/* pixels */
"################################################################",
"################################################################",
"################################################################",
"################################################################",
"################################################################",
"################################################################",
"################################################################",
"################################################################",
"################################################################",
"################################################################",
"################################################################",
"################################################################",
"################################################################",
"################################################################",
"################################################################",
"################################################################",
"################################################################",
"################################################################",
"################################################################",
"################################################################",
"###################@++@@@@@@@@@  .+@++++++######################",
"##################@+o..........X @@o     o+#####################",
"#################@+o...XXXXXXXX.@+o    .. o+####################",
"#################@+o...XXXXXXXX.@+o   .... o####################",
"################@+o...XXXXXXXX.@+o   ..... oo###################",
"################@+o..XXXXXXXXX.@+o   ...... o###################",
"################@+o..XXXXXXXXX.@+o   ...... o###################",
"################@+o..........X.@+o   ...... o###################",
"################@+o...@@@++o...@+o          o###################",
"################@+oo+@+....++@@+@oooooooooooo###################",
"################@++O+++OOO.++OO+@ooOOOOOoOooo###################",
"#################o+oo++OOoo+o.o+ooooooooooooo###################",
"#################+@o.o+++o++o.+@o           o###################",
"#################+@o .........+@o           o###################",
"#################+@o .XXXXXX..+@o   ....... o###################",
"#################+@o .XXXXXX..+@o   ....... o###################",
"#################+@o  XXXXXXX.o@o   ....... o###################",
"#################+@o     .....oOo           o###################",
"#################++oooooooooooooooooooooooooo###################",
"################################################################",
"################################################################",
"################################################################",
"################################################################",
"################################################################",
"################################################################",
"################################################################",
"################################################################",
"################################################################",
"################################################################",
"################################################################",
"################################################################",
"################################################################",
"################################################################",
"################################################################",
"################################################################",
"################################################################",
"################################################################",
"################################################################",
"################################################################",
"################################################################",
"################################################################",
"################################################################",
"################################################################",
"################################################################"
};
