/* XPM */
static char *result[] = {
/* columns rows colors chars-per-pixel */
"64 64 11 1 ",
"  c black",
". c #1A1A18",
"X c #3D241E",
"o c #342C28",
"O c #49383D",
"+ c #3D4143",
"@ c #495254",
"# c #525D5E",
"$ c #5B6567",
"% c #6D8084",
"& c #809EA5",
/* pixels */
"$$$$@$$$$@@+++.                         @@@@$$$$$$$$$$$$$$$$$$$$",
"@@@@@@@@@@++++.                         @+++@@@@@@@@@@@@@@@@@@@@",
"@@@@@@@@@@+++o.                         @+++@@@@@@@@@@@@@@@@@@@@",
"OOOOOO@@@@++++.                         @+++@@@XXXXXXXXXXXXOXOOO",
"@@@@@@@@@@+++o.                         @+++@@XO@@@@@@@@@@@@@@@@",
"@@@@@@@$@@+++o.                         @+++@@X@@@@@@@@@@@@@@@@@",
"@@@@@@@$@@+++o.                         @+++@@X@@@@@@@@@@@@@@@@@",
"$$$$$$$%$$@@@+o.                        %@@@$$O$$$$$$$$$$$$$$$$$",
"@@@@@@@$@@+++o.                         @+++@@X@@@@@@@@@@@@@@@@@",
"$$$$$$$%$$@@@+o.                        %@@@$$@$$$$$$$$$$$$$$$$$",
"$$$$$$$&$$@@@+.                         %@@@$$@$$$$$$$$$$$$$$$$$",
"$$$$$$$%$$@@@+.                         %@@@$$$$$$$$$$$$$$$$$$$$",
"$$$$$$$&$$@@@+o.                        %@@@$$$$%%%&%&&&&%$$$$$$",
"$$$$$$$&$$@@@+o.                        %@@@$$$$$$$$$$$$$$%$$$$$",
"$$$$$$$&$$@@@+o.                        %@@@$$$$$$$$$$$$$$$%$$$$",
"$$$$$$$&$$@@@+..                        $@@@@@@@@@@@@@@@#$$$%$$$",
"$$$$$$$&$$@@@+o.                        %@@@@@@@@@@@@@@@@@$$$%$$",
"$$$$$$%&$$@@@@..                        $@@@@@@@@@@@@@@@@@#$$$%$",
"%&&&&&&$$$@@@+o.                        $$$$$$$$@$@$@@@@@@@$$$$%",
"$$$$$$$$$$@@@@oooooooooo.o...                         +@@@@$$$$$",
"$$$$$$$$$$@@@@+oooooooo.o.o...                         @@@@$$$$$",
"@@@@@@$$$$@@@@@@@@@@@@@@@@@@o.                         $@@@$$$OO",
"$$$$$$$$$$#@@@@@@@@@@@@@@@@@@.                         %@@@$$O$$",
"$$$$$$$%$$$@@@@@@@@@@@@@@@@@+.                         %@@@$$O$$",
"$$$$$$$$&$$$#@@@@@@@@@@@@@@@@.                         %@@@$$O$$",
"$$$$$$$$$%$$$$$$$$$$$$$$$@@@+.                         %@@@$$O$$",
"$$$$$$$$$$%$$$$$$$$$$$$$$@@@+.                         %@@@$$O$$",
"$$$$$$$$$$$@OOOOOO@@@$$$$@@@+.                         %@@@$$O$$",
"$$$$$$$$$$$$$$$$$$$$$$$$$@@@+.                         %@@@$$O$$",
"$$$$$$$$$$$$$$$$$$$$$$%$$@@@+.                         $@@@$$O$$",
"$$$$$$$$$$$$$$$$$$$$$$%$$@@@+.                        .%@@@$$@$$",
"$$$$$$$$$$$$$$$$$$$$$$%$$@@@+.                        o$@@@$$O$$",
"$$$$$$$$$$$$$$$$$$$$$$%$$@@@+o.                        $@@@$$@$$",
"$$$$$$$$$$$$$$$$$$$$$$&$$@@@+.                        o$@@@$$O$$",
"$$$$$$$$$$$$$$$$$$$$$$&$$@@@+o                        .$@@@$$@$$",
"$$$$$$$$$$$$$$$$$$$$$%&$$@@@+.                        o$@@@$$@$$",
"$$$$&&&&&&&&&&&&&&&&&&$$$@@@@o                        o$@@@$$@$$",
"$$$&$$$$$$$$$$$$$$$$$$$$$@@@+.                        o$@@@$$@$$",
"$$&$$$$$$$$$$$$$$$$$$$$$$@@@@o                        o$@@@$$@$$",
"$&$$$#@@@@@@@@@@@@@@@@@@@@@@+.                        o@@@@$$@$$",
"&$$$@@@@@@@@@@@@@@@@@@@@@@@@@o                        o$@@@$$@$$",
"$$$#@@@@@@@@@@@@@@@@@@@@@@@@@.                        o@@@@$$$$$",
"$$$@@@@@@@$$$$$$$$$$$$@$@$@@oo                        o$@@@$$$$%",
"$$$@@@@+..oooooo.o.o.o.o.o.                        oooo@@@@$$$$$",
"$$$@@@@.                         .ooooo.o.o.o.o.o.oooo+@@@@$$$$$",
"$$$@@@@.                         @@@@@@@@@@@@@@@@@@@@@@@@@@$$$$O",
"$$$@@@+.                         @@@@@@@@@@@@@@@@@@@@@@@@@#$$$O$",
"%$$@@@@.                         $@@@@@@@@@@@@@@@@@@@@@@@@$$$O$$",
"%$$@@@+.                         @@@@@@@@@@@@@@@@@@@@@@@#$$$O$$$",
"%$$@@@+.                         $@@@$$$$$$$$$$$$$$$$$$$$$$O$$$$",
"&$$@@@+.                         %@@@$$$$$$$$$$$$$$$$$$$$$@$$$$$",
"&$$@@@+o.                        %@@@$$$OOOOOOOOOO@O@@@@@@$$$$$$",
"&$$@@@+.                         %@@@$$O@$$$$$$$$$$$$$$$$$$$$$$$",
"&$$@@@+o.                        $@@@$$O$$$$$$$$$$$$$$$$$$$$$$$$",
"&$$@@@+.                         %@@@$$O$$$$$$$$$$$$$$$$$$$$$$$$",
"%$$@@@oo.                        @@@@$$O$$$$$$$$$$$$$$$$$$$$$$$$",
"&$$@@@+o                        .$@@@$$@$$$$$$$$$$$$$$$$$$$$$$$$",
"&$$@@@oo                        .@@@@$$@$$$$$$$$$$$$$$$$$$$$$$$$",
"&$$@@@o.                        .@@@@$$@$$$$$$$$$$$$$$$$$$$$$$$$",
"&$$@@@oo.                        @@@@$$$$$$$$$$$$$$$$$$$$$$$$$$$",
"$$$@@@o.                        .@@@@$$$$%%%%%%&&&&&%&%&&&&&&&&&",
"$$$@@@oo.                        @@@@$$$$$$$$$$$$$$$$$$$$$$$$$$$",
"$$$@@@oo                        o@@@@$$$$$$$$$$$$$$$$$$$$$$$$$$$",
"OOOXXX....X....O.                        OOOOOOOOOOXOXOOXOXOXXXX"
};