/* XPM */
static char *result[] = {
/* columns rows colors chars-per-pixel */
"64 64 11 1 ",
"  c #2B0D10",
". c #341014",
"X c #612128",
"o c #FF1831",
"O c #8E7B63",
"+ c #BDAB94",
"@ c #FBE9D1",
"a c #3C2312",
"b c #482B16",
"d c #54301B",
"e c #52371E",
/* pixels */
"edddbdedddddbdddbddddbddaeddddbdedddbdedddddbdddbddddbddaeddddbd",
"addbdddadbdbddbbdaadddbdddddddaeaddbdddadbdbddbbdaadddbdddddddae",
"dbdbedddbdbedddddbdedbdbebdddbbddbdbadddbdbedddddbdedbdbebdddbbd",
"ddbaddbedbddddddddddbdbabbdaedddddbaddbedbddddddddddbdbabbdaeddd",
"ddddddbdddeddbdddbdadddddeddbdedddddddbdddeddbdddbdadddddeddbded",
"dddebbdddbdddddebddddbedbddddbdddddebbdddbdddddebddddbedbddddbdd",
"ddaabdddbdbdddbddbddddbaddddbdbaddaabdddbdbdddbddbddddbaddddbdba",
"eddbdbebdbddebdbdddadbdddddbddddeddbdbebdbddebdbdddadbdddddbdddd",
"ddbdbdddaddbbdadddddbbbddebabdddddbdbdddaddbbdadddddbbbddebabddd",
"dddbdddbdddbbbdeaddbebdddddbdddadddbdddbdddbbbdeaddbebdddddbddda",
"adbebdddadddbdddddbdbbddadbbdebdadbebdddadddbdddddbdbbddadbbdebd",
"dbebddddeddbebaddadbdddddbdbddaddbebddddeddbebaddadbdddddbdbddad",
"bdddddddddbbbbdddddbddbedbddddddbdddddddddbbbbdddddbddbedbdddddd",
"ddedddaddbabbdebdddddddddddddddbddedddaddbabbdebdddddddddddddddb",
"dbadddedbdeddddbdbdddadddadddbbddbadddedbdeddddbdbdddadddadddbbd",
"ddddbbdbddddddddbddeddbddbebddedddddbbdbddddddddbddeddbddbebdded",
"eddeddddddaddddadbdadbebddbdbdbdeddeddddddaddddadbdadbebddbdbdbd",
"ddbdadddddedddbddeddbddddbbdddddddbdadddddedddbddeddbddddbbddddd",
"dadeadddabdddbdedbebddbdddbbbddddadeadddabdddbdedbebddbdddbbbddd",
"bdbdebdebdddbdddddbbbdddaddbdeddbdbdebdebdddbdddddbbbdddaddbdedd",
"adbddddbbddbddbdbbdbdbdddabddadbadbddddbbddbddbdbbdbdbdddabddadb",
"dddeddbdbdbdddddbdbedddddbaebddddddeddbdbdbdddddbdbedddddbaebddd",
"adbdabdbbbddeddedadddbdeddddbbddadbdabdbbbddeddedadddbdeddddbbdd",
"ddddbdbbeddbdabbddddddddbddbdddbddddbdbbeddbdabbddddddddbddbdddb",
"dddbbedbbdddddddbddeddddbdbdbebddddbbedbbdddddddbddeddddbdbdbebd",
"dbddbddddbdddbddddbddbdbabdbbbaddbddbddddbdddbddddbddbdbabdbbbad",
"dedbdddbdddbddddddebddbdbbbebddddedbdddbdddbddddddebddbdbbbebddd",
"dedbdddbdddbddddddebddbdXXXXXXXXXXXXXXXXXdddbdddbddddbddaeddddbd",
"dedbdddbdddbddddddebddXXXXXXXXXXXXXXXXXXXXXbddbbdaadddbdddddddae",
"dedbdddbdddbddddddebdXXXXXXXXXXXXXXXXXXXXXXXdddddbdedbdbebdddbbd",
"dedbdddbdddbddddddebdXXXXXXXXXXXXXXXXXXXXXXXddddddddbdbabbdaeddd",
"dedbdddbdddbddddddebdXXXXXXXXXXXXX.....XXXXXdbdddbdadddddeddbded",
"dedbdddbdddbddddddebdXXXXXXXX............XXXdddebddddbedbddddbdd",
"dedbdddbdddbddddddebdXXXXX................bdddbddbddddbaddddbdba",
"dedbdddbdddbddddddebddbdX...X..XX.X....X...debdbdddadbdddddbdddd",
"dedbdddbdddbddddddebddbdb...XX..XX..XXXX..dbbdadddddbbbddebabddd",
"adbdabdbbbddeddedadddbdeddd...OOO.XX...bdddbbbdeaddbebdddddbddda",
"adbebdddadddbdddddbdbbddadbbdOOooO.Oooddadddbdddddbdbbddadbbdebd",
"dbebddddeddbebaddadbdddddbdbd++oo+O+ooddeddbebaddadbdddddbdbddad",
"bdddddddddbbbbdddddbddbedbddd+++++++++ddddbbbbdddddbddbedbdddddd",
"ddedddaddbabbdebdddddddddddd+++@+@+@++addbabbdebdddddddddddddddb",
"dbadddedbdeddddbdbdddaddda++++ @ @ @ ++dbdeddddbdbdddadddadddbbd",
"ddddbbdbddddddddbddeddbdd+++++  @    ++bddddddddbddeddbddbebdded",
"eddeddddddaddddadbdadbeb+++++++ @+ @ +++ddaddddadbdadbebddbdbdbd",
"ddbdadddddedddbddeddbdd+++++O+++++++++++ddedddbddeddbddddbbddddd",
"dadeadddabdddbdedbebddb++++OO+++++++++O++bdddbdedbebddbdddbbbddd",
"bdbdebdebdddbdddddbbbddO+++O++++++++++OO++ddbdddddbbbdddaddbdedd",
"adbddddbbddbddbdbbdbdbOO++OO++++++++++OO++dbddbdbbdbdbdddabddadb",
"dddeddbdbdbdddddbdbeddOO+OXO++++++++++OO++bdddddbdbedddddbaebddd",
"adbdabdbbbddeddedadddXXOOOX.+++++++++++OO++deddedadddbdeddddbbdd",
"ddddbdbbeddbdabbddddd.XXOXOX+++++++++++O.+Xbdabbddddddddbddbdddb",
"dddbbedbbdddddddbddedd.X.X.O++++++++++++.XXdddddbddeddddbdbdbebd",
"dbddbddddbdddbddddbddbd...+X++++++++++++d.dddbddddbddbdbabdbbbad",
"dedbdddbdddbddddddebddbXbX++++++++++++++dddbddddddebddbdbbbebddd",
"edddbdedddddbdddbddddbdda+++++++++++++OOddddbdddbddddbddaeddddbd",
"addbdddadbdbddbbdaadddbdd++++O+++++OOOOadbdbddbbdaadddbdddddddae",
"dbdbedddbdbedddddbdedbdbe++++++O++OOOOOdbdbedddddbdedbdbebdddbbd",
"ddbaddbedbddddddddddbdbab+++++OOOOOOOOOedbddddddddddbdbabbdaeddd",
"ddddddbdddeddbdddbdaddddd++++OOOOOOOOOOdddeddbdddbdadddddeddbded",
"dddebbdddbdddddebddddbedb+++OOOOOOOOO++ddbdddddebddddbedbddddbdd",
"ddaabdddbdbdddbddbddddbadX+OOOOOOOOO+++dbdbdddbddbddddbaddddbdba",
"eddbdbebdbddebdbdddadbdd.X.OXdddedd.+.Obdbddebdbdddadbdddddbdddd",
"ddbdbdddaddbbdadddddbbbdX.X.bdddddbX.X.daddbbdadddddbbbddebabddd",
"dddbdddbdddbbbdeaddbebdddddbdddadddbdddbdddbbbdeaddbebdddddbddda"
};
